<svg xmlns="http://www.w3.org/2000/svg" width="27.342" height="20.499" viewBox="0 0 27.342 20.499">
    <path d="M12.8 20.5h-.456c-.25 0-.425 0-.578-.008a8.882 8.882 0 0 1-1.365-.12A5.01 5.01 0 0 1 9 19.908a4.684 4.684 0 0 1-1.181-.855c-.029-.027-.047-.046-.1-.1a33.44 33.44 0 0 1-.387-.381 32.753 32.753 0 0 1-.392-.39l-2.595-2.6a5.963 5.963 0 0 1-.207-.2c-.094-.091-.147-.144-.263-.26l-2.367-2.371-.1-.107-.112-.111a5.93 5.93 0 0 1-.185-.19 7.805 7.805 0 0 1-.561-.617 2.1 2.1 0 0 1-.393-.595l-.026-.069a2.617 2.617 0 0 1 0-1.624l.025-.067a2.016 2.016 0 0 1 .391-.6 7.792 7.792 0 0 1 .549-.6c.08-.084.137-.143.209-.214l.064-.064c.056-.056.1-.1.15-.153l2.358-2.36.076-.075.031-.031.034-.033.04-.041.042-.045c.064-.064.131-.129.218-.212L5.753 3.51l.018-.018 1.142-1.144.022-.022c.162-.162.277-.277.388-.384s.219-.217.348-.338l.039-.042.088-.093A4.779 4.779 0 0 1 9 .592a5.085 5.085 0 0 1 1.407-.463A9.065 9.065 0 0 1 11.756.01c.188-.01.368-.01.581-.01H21.333c.181 0 .364 0 .579.008a9.044 9.044 0 0 1 1.367.12 4.971 4.971 0 0 1 1.4.462 4.591 4.591 0 0 1 1.2.876 4.786 4.786 0 0 1 .875 1.2 5.031 5.031 0 0 1 .46 1.4 8.955 8.955 0 0 1 .119 1.345v.085a.279.279 0 0 0 0 .03v9.126c0 .174 0 .261-.007.361a9.056 9.056 0 0 1-.12 1.378 5.058 5.058 0 0 1-.466 1.414 4.742 4.742 0 0 1-.878 1.209 4.679 4.679 0 0 1-1.215.881 4.988 4.988 0 0 1-1.413.466 8.873 8.873 0 0 1-1.366.12 26.45 26.45 0 0 1-.593.008zm-.455-18.978c-.188 0-.366 0-.562.007a7.721 7.721 0 0 0-1.126.1 3.459 3.459 0 0 0-.97.321 3.163 3.163 0 0 0-.819.6l-.009.009-.008.009-.035.032-.007.008-.014.014c-.049.052-.063.067-.084.086-.11.1-.215.208-.318.31l-.222.22-.065.062-.095.1-2.62 2.621a.822.822 0 0 1-.062.056c-.051.049-.1.1-.156.153l-.118.117-.11.108L2.6 8.8l-.159.162-.088.087-.09.092-.005.007-.084.086a6.351 6.351 0 0 0-.47.518l-.046.052a.559.559 0 0 0-.1.135 1.12 1.12 0 0 0 0 .615.527.527 0 0 0 .1.132l.05.056a6.277 6.277 0 0 0 .487.536c.048.052.1.11.172.176l.116.117.055.056.031.032.024.024 2.354 2.358c.111.112.16.16.222.22l.152.149.01.01.058.052L8.011 17.1l.338.337.014.013.034.034c.134.134.22.219.31.3l.093.094.014.015.058.062a3.242 3.242 0 0 0 .812.592 3.48 3.48 0 0 0 .967.32 7.665 7.665 0 0 0 1.139.1c.192.005.363.007.555.008h8.935c.155 0 .309 0 .567-.008a7.618 7.618 0 0 0 1.139-.1 3.476 3.476 0 0 0 .98-.324 3.22 3.22 0 0 0 .824-.6 3.316 3.316 0 0 0 .6-.822 3.5 3.5 0 0 0 .323-.979 7.759 7.759 0 0 0 .1-1.159v-.05c0-.075 0-.15.005-.27v-.1V5.912v-.263-.2a7.534 7.534 0 0 0-.1-1.127 3.491 3.491 0 0 0-.317-.968 3.311 3.311 0 0 0-.6-.82 3.138 3.138 0 0 0-.813-.591 3.393 3.393 0 0 0-.962-.32 7.68 7.68 0 0 0-1.144-.1c-.149 0-.331-.007-.559-.008h-8.298c-.335.003-.486.004-.68.007zm7.265 12.749l-.005.005-3.068-3.066-3.066 3.069-.011-.011a.663.663 0 0 1-.218.146.682.682 0 0 1-.742-1.114.662.662 0 0 1 .12-.1l2.956-2.96L12.5 7.176l.01-.01a.682.682 0 0 1 .968-.961.681.681 0 0 1 .086.106l2.976 2.974L19.518 6.3a.681.681 0 0 1 1.242.388.681.681 0 0 1-.2.479l.008.008-3.068 3.073 2.971 2.969a.708.708 0 0 1 .1.086.682.682 0 0 1-.962.966z"/>
</svg>
