<svg xmlns="http://www.w3.org/2000/svg" width="23.736" height="20.689" viewBox="0 0 23.736 20.689">
    <defs>
        <style>
            .cls-1{fill:#c7c7c7}
        </style>
    </defs>
    <path id="Shift" d="M22.806 13.156h-5.277v5.526a3.661 3.661 0 0 1-.047.536 1.858 1.858 0 0 1-.168.507 1.681 1.681 0 0 1-.317.432 1.8 1.8 0 0 1-.435.314 1.979 1.979 0 0 1-.512.168 3.857 3.857 0 0 1-.538.046H8.229a3.859 3.859 0 0 1-.538-.046 1.977 1.977 0 0 1-.511-.168 1.8 1.8 0 0 1-.435-.314 1.676 1.676 0 0 1-.317-.432 1.859 1.859 0 0 1-.168-.507 3.65 3.65 0 0 1-.047-.536v-5.526H.85a1.157 1.157 0 0 1-.587-1.818C.817 10.789 9.516 2.116 11.336.31a.874.874 0 0 1 .532-.31h.014a.631.631 0 0 1 .461.239c1.82 1.806 10.549 10.55 11.1 11.1a1.094 1.094 0 0 1-.637 1.817z" class="cls-1"/>
</svg>
