<svg xmlns="http://www.w3.org/2000/svg" width="100" height="98.356" viewBox="0 0 100 98.356">
    <defs>
        <style>
            .cls-1{fill:#555}.cls-2{fill:#e9041e}
        </style>
    </defs>
    <g id="Group_2269" data-name="Group 2269" transform="translate(-910 -897)">
        <path id="Union_15" d="M-3978.333-1209.644a1.666 1.666 0 0 1-1.667-1.666v-56.667a1.667 1.667 0 0 1 1.667-1.667h9.218a23.771 23.771 0 0 1 2.616-3.166 23.24 23.24 0 0 1 13.742-6.666 23.331 23.331 0 0 1 14.238-26.912 23.332 23.332 0 0 1 28.73 10.078 23.067 23.067 0 0 1 2.648 7.135 23.234 23.234 0 0 1 18.55 19.531h6.926a1.666 1.666 0 0 1 1.666 1.667v56.667a1.666 1.666 0 0 1-1.666 1.666zm1.666-3.333h93.333v-53.333h-93.333zm64.527-56.667h20.191a19.954 19.954 0 0 0-14.757-16.02 23.388 23.388 0 0 1-5.434 16.02zm-27.86-32.323a20.062 20.062 0 0 0-9.032 23.477 19.331 19.331 0 0 0 1.707 3.846 19.963 19.963 0 0 0 4.117 5h26.384a19.97 19.97 0 0 0 6.609-17.854 19.756 19.756 0 0 0-2.463-7.146 20.02 20.02 0 0 0-17.351-10 19.94 19.94 0 0 0-9.971 2.677zm-24.138 31.518c-.259.259-.484.537-.725.805h16.987a23.215 23.215 0 0 1-2.332-3.333 22.428 22.428 0 0 1-1.52-3.244 19.9 19.9 0 0 0-12.41 5.772zm69.138 54.139v-3.333h5v-1.667h3.333v3.333a1.667 1.667 0 0 1-1.667 1.667zm-6.666 0v-3.333h3.333v3.333zm-6.666 0v-3.333h3.332v3.333zm-6.667 0v-3.333h3.333v3.333zm-6.666 0v-3.333h3.333v3.333zm-6.666 0v-3.333h3.331v3.333zm-6.667 0v-3.333h3.333v3.333zm-6.666 0v-3.333h3.333v3.333zm-6.667 0v-3.333h3.331v3.333zm-6.666 0v-3.333h3.333v3.333zm-6.666 0v-3.333h3.333v3.333zm-10 0a1.668 1.668 0 0 1-1.667-1.667v-3.333h3.33v1.667h5v3.333zm58.94-6.667c-7.686 0-13.94-7.476-13.94-16.666a18.315 18.315 0 0 1 3.98-11.667 12.947 12.947 0 0 1 9.959-5H-3895a1.667 1.667 0 0 1 1.667 1.666v30a1.666 1.666 0 0 1-1.667 1.666zm-7.379-26.215a15.2 15.2 0 0 0-3.227 9.549c0 7.352 4.759 13.333 10.607 13.333h16.061v-26.666h-16.061a9.52 9.52 0 0 0-7.384 3.783zm30.106 24.549v-30h3.333v30zm-83.334-3.333v-3.333h3.33v3.333zm58.334-11.667a6.667 6.667 0 0 1 6.666-6.667 6.668 6.668 0 0 1 6.667 6.667 6.667 6.667 0 0 1-6.667 6.666 6.666 6.666 0 0 1-6.67-6.667zm3.333 0a3.333 3.333 0 0 0 3.333 3.333 3.333 3.333 0 0 0 3.333-3.333 3.334 3.334 0 0 0-3.333-3.334 3.334 3.334 0 0 0-3.337 3.333zm-61.667 5v-3.333h3.33v3.333zm0-6.666v-3.333h3.33v3.333zm0-6.666v-3.334h3.33v3.334zm83.334-10v-1.666h-5v-3.334h6.666a1.667 1.667 0 0 1 1.667 1.667v3.333zm-83.334 0v-3.333a1.668 1.668 0 0 1 1.667-1.667h6.663v3.334h-5v1.666zm71.667-1.666v-3.334h3.333v3.334zm-6.666 0v-3.334h3.329v3.334zm-6.667 0v-3.334h3.333v3.334zm-6.666 0v-3.334h3.333v3.334zm-6.666 0v-3.334h3.328v3.334zm-6.667 0v-3.334h3.333v3.334zm-6.666 0v-3.334h3.333v3.334zm-6.667 0v-3.334h3.328v3.334zm-6.666 0v-3.334h3.333v3.334zm-6.666 0v-3.334h3.333v3.334z" class="cls-1" data-name="Union 15" transform="translate(4890 2205)"/>
        <g id="Group_2121" data-name="Group 2121">
            <path id="Path_2506" d="M0 1.666L2.887 0l1.666 2.887-2.886 1.666zm0 0" class="cls-2" data-name="Path 2506" transform="rotate(30 -1239.52 2220.464)"/>
            <path id="Path_2507" d="M0 1.666L2.887 0l1.666 2.887-2.886 1.666zm0 0" class="cls-2" data-name="Path 2507" transform="rotate(30 -1224.52 2276.443)"/>
            <path id="Path_2508" d="M0 1.666L2.887 0l1.666 2.887-2.886 1.666zm0 0" class="cls-2" data-name="Path 2508" transform="rotate(30 -1204.018 2240.998)"/>
            <path id="Path_2509" d="M0 1.666L1.45.828l1.666 2.887-1.45.838zm0 0" class="cls-2" data-name="Path 2509" transform="rotate(120 211.782 745.287)"/>
            <circle id="Ellipse_226" cx="2.703" cy="2.703" r="2.703" class="cls-2" data-name="Ellipse 226" transform="translate(957.748 917.8)"/>
            <path id="Rectangle_1628" d="M0 0h1.802v9.91H0z" class="cls-2" data-name="Rectangle 1628" transform="translate(959.55 910.593)"/>
            <path id="Rectangle_1629" d="M0 0h1.802v15.315H0z" class="cls-2" data-name="Rectangle 1629" transform="rotate(45 -631.948 1617.74)"/>
        </g>
    </g>
</svg>
