<svg xmlns="http://www.w3.org/2000/svg" width="100" height="100" viewBox="0 0 100 100">
    <defs>
        <style>
            .cls-1{fill:#fff}.cls-2{clip-path:url(#clip-path)}.cls-3{fill:#555}.cls-4,.cls-5{fill:#e9041e}.cls-5{font-size:13px;font-family:Montserrat-Bold,Montserrat;font-weight:700}
        </style>
        <clipPath id="clip-path">
            <path id="Rectangle_950" d="M0 0h100v100H0z" class="cls-1" data-name="Rectangle 950" transform="translate(329 1105)"/>
        </clipPath>
    </defs>
    <g id="Mask_Group_661" class="cls-2" data-name="Mask Group 661" transform="translate(-329 -1105)">
        <g id="transfer" transform="translate(330.667 1105)">
            <path id="Path_1895" d="M95 21.667H56.667V5a5 5 0 0 0-5-5H5a5 5 0 0 0-5 5v90a5 5 0 0 0 5 5h46.667a5 5 0 0 0 5-5V76.667H90A1.667 1.667 0 0 0 91.667 75v-3.333H95A1.667 1.667 0 0 0 96.667 70V23.333A1.667 1.667 0 0 0 95 21.667zM56.667 30h21.786a11.7 11.7 0 0 0 9.88 9.884v13.567a11.7 11.7 0 0 0-9.882 9.882H56.667zM5 3.333h46.667A1.667 1.667 0 0 1 53.333 5v3.333h-15a1.667 1.667 0 0 0-1.387.741l-2.839 4.259H22.559l-2.834-4.258a1.667 1.667 0 0 0-1.392-.741h-15V5A1.667 1.667 0 0 1 5 3.333zm46.667 93.334H5A1.667 1.667 0 0 1 3.333 95v-8.333h50V95a1.667 1.667 0 0 1-1.666 1.667zm1.667-13.333h-50V11.667h14.107l2.834 4.259a1.667 1.667 0 0 0 1.392.741H35a1.667 1.667 0 0 0 1.387-.741l2.839-4.259h14.107zm35-10H56.667v-1.667h31.666zm5-5H56.667v-1.667H80A1.667 1.667 0 0 0 81.667 65 8.343 8.343 0 0 1 90 56.667 1.667 1.667 0 0 0 91.667 55V38.333A1.667 1.667 0 0 0 90 36.667a8.26 8.26 0 0 1-7.115-4 8.149 8.149 0 0 1-1.218-4.333A1.667 1.667 0 0 0 80 26.667H56.667V25h36.666zm0 0" class="cls-3" data-name="Path 1895"/>
            <path id="Path_1896" d="M34.417 101.383a3.333 3.333 0 1 1-3.333-3.333 3.334 3.334 0 0 1 3.333 3.333zm0 0" class="cls-3" data-name="Path 1896" transform="translate(-2.75 -9.717)"/>
            <path id="Path_1897" d="M25.9 7.4h10v3.333h-10zm0 0" class="cls-3" data-name="Path 1897" transform="translate(-2.567 -.733)"/>
            <path id="Path_1898" d="M8.883 23.683h1.667V20.35H7.217a1.667 1.667 0 0 0-1.667 1.667v3.333h3.333zm0 0" class="cls-3" data-name="Path 1898" transform="translate(-.55 -2.017)"/>
            <path id="Path_1899" d="M55.133 20.35H51.8v3.333h1.667v1.667H56.8v-3.333a1.667 1.667 0 0 0-1.667-1.667zm0 0" class="cls-3" data-name="Path 1899" transform="translate(-5.133 -2.017)"/>
            <path id="Path_1900" d="M8.883 85.1H5.55v3.333A1.667 1.667 0 0 0 7.217 90.1h3.333v-3.333H8.883zm0 0" class="cls-3" data-name="Path 1900" transform="translate(-.55 -8.433)"/>
            <path id="Path_1901" d="M53.467 86.767H51.8V90.1h3.333a1.667 1.667 0 0 0 1.667-1.667V85.1h-3.333zm0 0" class="cls-3" data-name="Path 1901" transform="translate(-5.133 -8.433)"/>
            <path id="Path_1902" d="M29.25 29.6a20 20 0 1 0 20 20 20 20 0 0 0-20-20zm0 36.667A16.667 16.667 0 1 1 45.917 49.6 16.666 16.666 0 0 1 29.25 66.267zm0 0" class="cls-3" data-name="Path 1902" transform="translate(-.917 -2.933)"/>
            <path id="Path_1903" d="M26.345 43.6l-2.357-2.357-5 5a1.667 1.667 0 0 0 1.178 2.845h20v-3.334H24.19zm0 0" class="cls-4" data-name="Path 1903" transform="translate(-1.833 -4.087)"/>
            <path id="Path_1904" d="M38.5 53.65h-20v3.333h15.977l-2.155 2.155 2.356 2.362 5-5a1.667 1.667 0 0 0-1.178-2.85zm0 0" class="cls-4" data-name="Path 1904" transform="translate(-1.833 -5.317)"/>
        </g>
        <text id="CFA" class="cls-5" transform="translate(402.052 1155.754)">
            <tspan x="-13.708" y="0">CFA</tspan>
        </text>
    </g>
</svg>
