<svg xmlns="http://www.w3.org/2000/svg" width="98.83" height="100" viewBox="0 0 98.83 100">
    <defs>
        <style>
            .cls-1{fill:#555}.cls-2,.cls-3{fill:#e9041e}.cls-2{font-size:14px;font-family:Montserrat-Bold,Montserrat;font-weight:700}
        </style>
    </defs>
    <g id="Group_2271" data-name="Group 2271" transform="translate(-1407 -897)">
        <path id="Union_16" d="M-3947.283-1208.2a1.484 1.484 0 0 1-.738-1.283v-13.476h-23.472a8.516 8.516 0 0 1-8.507-8.506v-33.36a1.484 1.484 0 0 1 1.483-1.483 1.483 1.483 0 0 1 1.482 1.483v4.411a7.616 7.616 0 0 1 4.694-1.613 7.615 7.615 0 0 1 4.692 1.613v-14.486a5.031 5.031 0 0 1 5.025-5.025h64.139a5.031 5.031 0 0 1 5.025 5.025v41.066a5.032 5.032 0 0 1-5.025 5.027h-.905v2.887h9.712a5.549 5.549 0 0 0 5.543-5.542v-39.489a1.482 1.482 0 0 1 1.482-1.482 1.482 1.482 0 0 1 1.482 1.482v39.489a8.516 8.516 0 0 1-8.507 8.506h-9.713v13.476a1.485 1.485 0 0 1-.738 1.283 1.488 1.488 0 0 1-.744.2 1.475 1.475 0 0 1-.736-.2l-6.874-3.928-6.875 3.928a1.481 1.481 0 0 1-1.471 0l-6.875-3.928-6.875 3.928a1.479 1.479 0 0 1-1.47 0l-6.877-3.928-6.875 3.928a1.482 1.482 0 0 1-.737.2 1.484 1.484 0 0 1-.745-.203zm24.314-6.919l6.875 3.928 6.875-3.928a1.476 1.476 0 0 1 1.471 0l5.392 3.081v-55.533a9.4 9.4 0 0 0-9.393-9.392h-37.643a12.332 12.332 0 0 1 4.336 9.392v55.533l5.393-3.081a1.478 1.478 0 0 1 .736-.2 1.474 1.474 0 0 1 .735.2l6.876 3.928 6.875-3.928a1.474 1.474 0 0 1 .735-.2 1.479 1.479 0 0 1 .737.2zm-54.066-16.346a5.547 5.547 0 0 0 5.542 5.541h23.472v-41.646a9.4 9.4 0 0 0-9.393-9.392h-5.21a2.062 2.062 0 0 0-2.06 2.06v41.065a2.064 2.064 0 0 0 2.06 2.063h11.144a1.483 1.483 0 0 1 1.482 1.482 1.483 1.483 0 0 1-1.482 1.483h-11.144a5.032 5.032 0 0 1-5.025-5.028v-14.486a7.616 7.616 0 0 1-4.692 1.613 7.617 7.617 0 0 1-4.694-1.613zm77.645-36.105v35.795h.905a2.063 2.063 0 0 0 2.06-2.063v-41.062a2.064 2.064 0 0 0-2.06-2.061h-5.246a12.333 12.333 0 0 1 4.341 9.39zm-77.645 13.2a4.7 4.7 0 0 0 4.694 4.693 4.7 4.7 0 0 0 4.692-4.682v-.022a4.7 4.7 0 0 0-4.692-4.682 4.7 4.7 0 0 0-4.694 4.693zm87.023 5.239v-10.479a1.483 1.483 0 0 1 1.482-1.482 1.483 1.483 0 0 1 1.483 1.482v10.479a1.482 1.482 0 0 1-1.483 1.482 1.482 1.482 0 0 1-1.482-1.482zm-89.988-20.638v-7.5a8.517 8.517 0 0 1 8.507-8.507h2.339v-15.248a6.978 6.978 0 0 1 6.969-6.971h46.791a7.436 7.436 0 0 1 7.427 7.429v14.79h18.288a8.517 8.517 0 0 1 8.508 8.507v1.376a1.484 1.484 0 0 1-1.483 1.482 1.482 1.482 0 0 1-1.482-1.482v-1.376a5.549 5.549 0 0 0-5.543-5.542h-81.815a5.548 5.548 0 0 0-5.542 5.542v7.5a1.482 1.482 0 0 1-1.482 1.483 1.483 1.483 0 0 1-1.482-1.483zm13.812-16.011h55.256v-4.282h-55.256zm0-7.248h55.256v-4.246h-55.256zm0-8v.79h55.256v-.332a4.468 4.468 0 0 0-4.461-4.464h-46.792a4.009 4.009 0 0 0-4.003 4.005z" class="cls-1" data-name="Union 16" transform="translate(5387 2205)"/>
        <g id="Group_2270" data-name="Group 2270">
            <text id="CFA" class="cls-2" transform="translate(1463.771 981.215)">
                <tspan x="-14.763" y="0">CFA</tspan>
            </text>
            <path id="Path_2510" d="M50.369 54.589h-6.326a1.483 1.483 0 0 0 0 2.966h6.326a1.483 1.483 0 1 0 0-2.966zm0 0" class="cls-3" data-name="Path 2510" transform="translate(1402.782 891.59)"/>
            <path id="Path_2511" d="M78.868 54.589H58.307a1.483 1.483 0 0 0 0 2.966h20.561a1.483 1.483 0 0 0 0-2.966zm0 0" class="cls-3" data-name="Path 2511" transform="translate(1401.369 891.59)"/>
            <path id="Path_2512" d="M50.369 46.374h-6.326a1.483 1.483 0 0 0 0 2.966h6.326a1.483 1.483 0 1 0 0-2.966zm0 0" class="cls-3" data-name="Path 2512" transform="translate(1402.782 892.404)"/>
            <path id="Path_2513" d="M78.868 46.374H58.307a1.483 1.483 0 0 0 0 2.966h20.561a1.483 1.483 0 0 0 0-2.966zm0 0" class="cls-3" data-name="Path 2513" transform="translate(1401.369 892.404)"/>
            <path id="Path_2514" d="M49.657 39.641a1.483 1.483 0 0 0-1.482-1.483h-6.326a1.483 1.483 0 1 0 0 2.966h6.326a1.482 1.482 0 0 0 1.482-1.483zm0 0" class="cls-3" data-name="Path 2514" transform="translate(1403 893.219)"/>
            <path id="Path_2515" d="M78.156 39.641a1.483 1.483 0 0 0-1.483-1.483H56.112a1.483 1.483 0 1 0 0 2.966h20.56a1.483 1.483 0 0 0 1.484-1.483zm0 0" class="cls-3" data-name="Path 2515" transform="translate(1401.586 893.219)"/>
            <path id="Path_2516" d="M50.369 62.844h-6.326a1.483 1.483 0 0 0 0 2.966h6.326a1.483 1.483 0 1 0 0-2.966zm0 0" class="cls-3" data-name="Path 2516" transform="translate(1402.782 890.772)"/>
            <path id="Path_2517" d="M78.868 62.844H58.307a1.483 1.483 0 0 0 0 2.966h20.561a1.483 1.483 0 0 0 0-2.966zm0 0" class="cls-3" data-name="Path 2517" transform="translate(1401.369 890.772)"/>
            <path id="Path_2518" d="M50.369 71.1h-6.326a1.483 1.483 0 0 0 0 2.966h6.326a1.483 1.483 0 1 0 0-2.966zm0 0" class="cls-3" data-name="Path 2518" transform="translate(1402.782 889.954)"/>
            <path id="Path_2519" d="M78.868 71.1H58.307a1.483 1.483 0 0 0 0 2.966h20.561a1.483 1.483 0 0 0 0-2.966zm0 0" class="cls-3" data-name="Path 2519" transform="translate(1401.369 889.954)"/>
        </g>
    </g>
</svg>
