<svg xmlns="http://www.w3.org/2000/svg" width="26.522" height="26.509" data-name="bank-building (2)" viewBox="0 0 26.522 26.509">
    <g data-name="Group 2138">
        <path d="M25.306 24.099H1.205a1.206 1.206 0 1 0 0 2.411h24.1a1.206 1.206 0 0 0 0-2.411z" data-name="Path 2154"/>
        <path d="M2.711 20.965a1.206 1.206 0 0 0 0 2.411h21.088a1.206 1.206 0 0 0 0-2.411h-.3V10.119h.3a.6.6 0 0 0 0-1.2H2.711a.6.6 0 0 0 0 1.2h.3v10.845h-.3zm18.376-10.846v10.845h-3.614V10.119zm-6.025 0v10.845h-3.615V10.119zm-9.64 0h3.615v10.845H5.422z" data-name="Path 2155"/>
        <path d="M1.205 7.832h24.112a1.206 1.206 0 0 0 .391-2.344L13.751.105a1.208 1.208 0 0 0-.989 0L.711 5.528a1.205 1.205 0 0 0 .494 2.3z" data-name="Path 2156"/>
    </g>
</svg>
