<svg xmlns="http://www.w3.org/2000/svg" width="25.61" height="26.415" viewBox="0 0 25.61 26.415">
    <g data-name="Group 2145">
        <path d="M25.61 4.275A4.279 4.279 0 0 0 21.336 0H4.278a4.274 4.274 0 0 0-.009 8.548l-1.3 14.895a2.732 2.732 0 0 0 2.723 2.972h14.23a2.732 2.732 0 0 0 2.722-2.971l-1.3-14.9a4.279 4.279 0 0 0 4.266-4.269zm-5.037 20a.887.887 0 0 1-.653.288H5.691a.885.885 0 0 1-.882-.962L6.378 5.2l12.817-.035L20.801 23.6a.884.884 0 0 1-.228.679zm.763-18.5h-.232L21.036 5a1.8 1.8 0 0 0-1.8-1.654H6.378A1.8 1.8 0 0 0 4.578 5l-.067.773h-.233a1.5 1.5 0 1 1 0-3h17.058a1.5 1.5 0 1 1 0 3z" data-name="Path 2163"/>
        <path d="M9.417 12.017a.938.938 0 0 0-.975.871l-.462 8.241a.925.925 0 0 0 .871.975h.052a.924.924 0 0 0 .923-.872l.462-8.241a.924.924 0 0 0-.871-.974z" data-name="Path 2164"/>
        <path d="M14.141 6.085a.924.924 0 0 0-.924.924v14.942a.924.924 0 1 0 1.849 0V7.009a.924.924 0 0 0-.925-.924z" data-name="Path 2165"/>
    </g>
</svg>
