<svg xmlns="http://www.w3.org/2000/svg" width="34.707" height="50.483" viewBox="0 0 34.707 50.483">
    <defs>
        <style>
            .cls-1{fill:#e9041e}.cls-2{fill:#fff}
        </style>
    </defs>
    <g id="Black_DAB_PEN">
        <path id="Path_2153" d="M17.353 0a17.353 17.353 0 0 1 17.354 17.353c0 9.584-17.353 33.129-17.353 33.129S0 26.937 0 17.353A17.353 17.353 0 0 1 17.353 0z" class="cls-1" data-name="Path 2153"/>
        <g id="atm-machine" transform="translate(7.386 8.617)">
            <g id="Icons_2_">
                <g id="Group_2145" data-name="Group 2145">
                    <path id="Path_2163" d="M27.387 3.332A3.336 3.336 0 0 0 24.054 0h-13.3a3.332 3.332 0 0 0-.007 6.664L9.735 18.275a2.13 2.13 0 0 0 2.123 2.317h11.093a2.13 2.13 0 0 0 2.122-2.316L24.062 6.664a3.336 3.336 0 0 0 3.325-3.332zM23.46 18.927a.691.691 0 0 1-.509.224H11.858a.69.69 0 0 1-.687-.75l1.223-14.348 9.992-.027L23.638 18.4a.689.689 0 0 1-.178.527zM24.054 4.5h-.181l-.053-.6a1.4 1.4 0 0 0-1.406-1.289h-10.02A1.4 1.4 0 0 0 10.988 3.9l-.052.6h-.182a1.171 1.171 0 1 1 0-2.342h13.3a1.171 1.171 0 1 1 0 2.342z" class="cls-2" data-name="Path 2163" transform="translate(-7.422)"/>
                    <path id="Path_2164" d="M155.786 221.657a.731.731 0 0 0-.76.679l-.36 6.425a.721.721 0 0 0 .679.76h.041a.72.72 0 0 0 .719-.68l.36-6.424a.72.72 0 0 0-.679-.76z" class="cls-2" data-name="Path 2164" transform="translate(-148.442 -212.29)"/>
                    <path id="Path_2165" d="M252 112.246a.72.72 0 0 0-.72.72v11.648a.721.721 0 1 0 1.441 0v-11.647a.72.72 0 0 0-.721-.721z" class="cls-2" data-name="Path 2165" transform="translate(-240.973 -107.503)"/>
                </g>
            </g>
        </g>
    </g>
</svg>
