<svg xmlns="http://www.w3.org/2000/svg" width="78" height="78" viewBox="0 0 78 78">
    <defs>
        <style>
            .cls-1{fill:#fff}.cls-2{fill:#e9041e}.cls-3{filter:url(#Ellipse_231)}
        </style>
        <filter id="Ellipse_231" width="78" height="78" x="0" y="0" filterUnits="userSpaceOnUse">
            <feOffset dy="3"/>
            <feGaussianBlur result="blur" stdDeviation="3"/>
            <feFlood flood-opacity=".161"/>
            <feComposite in2="blur" operator="in"/>
            <feComposite in="SourceGraphic"/>
        </filter>
    </defs>
    <g id="Ma_position" data-name="Ma position" transform="translate(9 6)">
        <g class="cls-3" transform="translate(-9 -6)">
            <circle id="Ellipse_231-2" cx="30" cy="30" r="30" class="cls-1" data-name="Ellipse 231" transform="translate(9 6)"/>
        </g>
        <g id="Group_2131" data-name="Group 2131" transform="translate(16 16)">
            <path id="Subtraction_14" d="M8.985 17.969a8.984 8.984 0 1 1 8.984-8.985 9 9 0 0 1-8.984 8.985zm0-16.472a7.487 7.487 0 1 0 7.486 7.486A7.5 7.5 0 0 0 8.985 1.5z" class="cls-2" data-name="Subtraction 14" transform="translate(4.775 4.789)"/>
            <ellipse id="Ellipse_232" cx="4.492" cy="4.492" class="cls-2" data-name="Ellipse 232" rx="4.492" ry="4.492" transform="translate(9.113 9.127)"/>
            <rect id="Rectangle_1673" width="5.99" height="1.497" class="cls-2" data-name="Rectangle 1673" rx=".749" transform="rotate(-90 9.5 -3.51)"/>
            <rect id="Rectangle_1675" width="5.99" height="1.497" class="cls-2" data-name="Rectangle 1675" rx=".749" transform="translate(21.498 12.928)"/>
            <rect id="Rectangle_1676" width="5.99" height="1.497" class="cls-2" data-name="Rectangle 1676" rx=".749" transform="translate(0 12.928)"/>
            <rect id="Rectangle_1674" width="5.99" height="1.497" class="cls-2" data-name="Rectangle 1674" rx=".749" transform="rotate(-90 20.279 7.267)"/>
        </g>
    </g>
</svg>
