<svg xmlns="http://www.w3.org/2000/svg" width="30.91" height="19.576" viewBox="0 0 30.91 19.576">
    <defs>
        <style>
            .cls-1{fill:#d1d1d6}.cls-2{clip-path:url(#clip-path)}.cls-3{fill:#f5f5f5}.cls-4{fill:#ff4b55}.cls-5{fill:#41479b}
        </style>
        <clipPath id="clip-path">
            <rect id="Rectangle_1788" width="30.91" height="19.576" class="cls-1" data-name="Rectangle 1788" rx="4" transform="translate(226 405)"/>
        </clipPath>
    </defs>
    <g id="Mask_Group_752" class="cls-2" data-name="Mask Group 752" transform="translate(-226 -405)">
        <g id="united-states" transform="translate(226.515 399.848)">
            <path id="Path_2925" d="M29.364 24.728H.515A.515.515 0 0 1 0 24.213V5.667a.515.515 0 0 1 .515-.515h28.849a.515.515 0 0 1 .515.515v18.546a.515.515 0 0 1-.515.515z" class="cls-3" data-name="Path 2925"/>
            <g id="Group_4088" data-name="Group 4088">
                <path id="Path_2926" d="M29.88 6.658H0v-.991a.515.515 0 0 1 .515-.515h28.849a.515.515 0 0 1 .515.515v.991z" class="cls-4" data-name="Path 2926"/>
                <path id="Rectangle_1814" d="M0 0h29.88v1.506H0z" class="cls-4" data-name="Rectangle 1814" transform="translate(0 11.175)"/>
                <path id="Rectangle_1815" d="M0 0h29.88v1.506H0z" class="cls-4" data-name="Rectangle 1815" transform="translate(0 8.163)"/>
                <path id="Path_2927" d="M29.88 15.693H.515A.515.515 0 0 1 0 15.178v-.991h29.88z" class="cls-4" data-name="Path 2927"/>
                <path id="Rectangle_1816" d="M0 0h29.88v1.506H0z" class="cls-4" data-name="Rectangle 1816" transform="translate(0 20.211)"/>
                <path id="Path_2928" d="M29.364 24.728H.515A.515.515 0 0 1 0 24.213v-.991h29.88v.991a.515.515 0 0 1-.516.515z" class="cls-4" data-name="Path 2928"/>
                <path id="Rectangle_1817" d="M0 0h29.88v1.506H0z" class="cls-4" data-name="Rectangle 1817" transform="translate(0 17.199)"/>
            </g>
            <path id="Path_2929" d="M13.394 5.152H.515A.515.515 0 0 0 0 5.667v9.511a.515.515 0 0 0 .515.515h12.879a.515.515 0 0 0 .515-.515V5.667a.515.515 0 0 0-.515-.515z" class="cls-5" data-name="Path 2929"/>
            <g id="Group_4089" data-name="Group 4089">
                <path id="Path_2930" d="M1.447 6.334l.114.342h.36a.049.049 0 0 1 .028.088l-.29.214.109.344a.049.049 0 0 1-.075.054L1.4 7.169l-.293.21a.049.049 0 0 1-.075-.054l.109-.344-.29-.214a.049.049 0 0 1 .029-.088h.36l.114-.342a.049.049 0 0 1 .093-.003z" class="cls-3" data-name="Path 2930"/>
                <path id="Path_2931" d="M1.447 8.123l.114.342h.36a.049.049 0 0 1 .028.088l-.29.214.109.344a.049.049 0 0 1-.075.054L1.4 8.958l-.293.21a.049.049 0 0 1-.075-.054l.109-.344-.29-.214a.049.049 0 0 1 .029-.088h.36l.114-.342a.049.049 0 0 1 .093-.003z" class="cls-3" data-name="Path 2931"/>
                <path id="Path_2932" d="M1.447 9.912l.114.342h.36a.049.049 0 0 1 .028.088l-.29.214.109.344a.049.049 0 0 1-.075.054l-.293-.21-.293.21a.049.049 0 0 1-.075-.054l.109-.344-.29-.214a.049.049 0 0 1 .028-.088h.36l.114-.342a.049.049 0 0 1 .094 0z" class="cls-3" data-name="Path 2932"/>
                <path id="Path_2933" d="M1.447 11.7l.114.342h.36a.049.049 0 0 1 .028.088l-.29.214.109.344a.049.049 0 0 1-.075.054l-.293-.21-.293.21a.049.049 0 0 1-.075-.054l.109-.344-.29-.214a.049.049 0 0 1 .028-.088h.36l.114-.342a.049.049 0 0 1 .094 0z" class="cls-3" data-name="Path 2933"/>
                <path id="Path_2934" d="M1.447 13.49l.114.342h.36a.049.049 0 0 1 .028.088l-.29.214.109.344a.049.049 0 0 1-.075.054l-.293-.21-.293.21a.049.049 0 0 1-.075-.054l.109-.344-.29-.214a.049.049 0 0 1 .028-.088h.36l.114-.342a.048.048 0 0 1 .094 0z" class="cls-3" data-name="Path 2934"/>
                <path id="Path_2935" d="M2.835 7.211l.114.342h.36a.049.049 0 0 1 .028.088l-.29.214.109.344a.049.049 0 0 1-.075.054l-.293-.21-.293.21a.049.049 0 0 1-.074-.053l.109-.344-.29-.214a.049.049 0 0 1 .028-.088h.36l.114-.342a.049.049 0 0 1 .093-.001z" class="cls-3" data-name="Path 2935"/>
                <path id="Path_2936" d="M2.835 9l.114.342h.36a.049.049 0 0 1 .028.088l-.29.214.109.344a.049.049 0 0 1-.075.054l-.293-.21-.293.21a.049.049 0 0 1-.075-.054l.109-.344-.29-.214a.049.049 0 0 1 .028-.088h.36L2.743 9a.049.049 0 0 1 .092 0z" class="cls-3" data-name="Path 2936"/>
                <path id="Path_2937" d="M2.835 10.789l.114.342h.36a.049.049 0 0 1 .028.088l-.29.214.109.344a.049.049 0 0 1-.075.054l-.293-.21-.293.21a.049.049 0 0 1-.075-.054l.109-.344-.29-.214a.049.049 0 0 1 .028-.088h.36l.114-.342a.049.049 0 0 1 .094 0z" class="cls-3" data-name="Path 2937"/>
                <path id="Path_2938" d="M2.835 12.578l.114.342h.36a.049.049 0 0 1 .028.088l-.29.214.109.344a.049.049 0 0 1-.075.054l-.293-.21-.293.21a.049.049 0 0 1-.075-.054l.109-.344-.29-.214a.049.049 0 0 1 .028-.088h.36l.114-.342a.049.049 0 0 1 .094 0z" class="cls-3" data-name="Path 2938"/>
                <path id="Path_2939" d="M4.224 6.334l.114.342h.36a.049.049 0 0 1 .028.088l-.29.214.109.344a.049.049 0 0 1-.075.054l-.293-.21-.293.21a.049.049 0 0 1-.075-.054l.109-.344-.29-.214a.049.049 0 0 1 .028-.088h.36l.114-.342a.049.049 0 0 1 .094 0z" class="cls-3" data-name="Path 2939"/>
                <path id="Path_2940" d="M4.224 8.123l.114.342h.36a.049.049 0 0 1 .028.088l-.29.214.109.344a.049.049 0 0 1-.075.054l-.293-.21-.293.21a.049.049 0 0 1-.075-.054l.109-.344-.29-.214a.049.049 0 0 1 .028-.088h.36l.114-.342a.049.049 0 0 1 .094 0z" class="cls-3" data-name="Path 2940"/>
                <path id="Path_2941" d="M4.224 9.912l.114.342h.36a.049.049 0 0 1 .028.088l-.29.214.109.344a.049.049 0 0 1-.075.054l-.293-.21-.293.21a.049.049 0 0 1-.074-.054l.109-.344-.29-.214a.049.049 0 0 1 .028-.088h.36l.114-.342a.049.049 0 0 1 .093 0z" class="cls-3" data-name="Path 2941"/>
                <path id="Path_2942" d="M4.224 11.7l.114.342h.36a.049.049 0 0 1 .028.088l-.29.214.109.344a.049.049 0 0 1-.075.054l-.293-.21-.293.21a.049.049 0 0 1-.075-.054l.109-.344-.29-.214a.049.049 0 0 1 .028-.088h.36l.114-.342a.049.049 0 0 1 .094 0z" class="cls-3" data-name="Path 2942"/>
                <path id="Path_2943" d="M4.224 13.49l.114.342h.36a.049.049 0 0 1 .028.088l-.29.214.109.344a.049.049 0 0 1-.075.054l-.293-.21-.293.21a.049.049 0 0 1-.075-.054l.109-.344-.29-.214a.049.049 0 0 1 .028-.088h.36l.114-.342a.049.049 0 0 1 .094 0z" class="cls-3" data-name="Path 2943"/>
                <path id="Path_2944" d="M5.612 7.211l.114.342h.36a.049.049 0 0 1 .028.088l-.29.214.109.344a.049.049 0 0 1-.075.054l-.293-.21-.293.21A.049.049 0 0 1 5.2 8.2l.109-.344-.29-.214a.049.049 0 0 1 .028-.088h.36l.114-.342a.049.049 0 0 1 .091-.001z" class="cls-3" data-name="Path 2944"/>
                <path id="Path_2945" d="M5.612 9l.114.342h.36a.049.049 0 0 1 .028.088l-.29.214.109.344a.049.049 0 0 1-.075.054l-.293-.21-.293.21A.049.049 0 0 1 5.2 9.99l.109-.344-.29-.214a.049.049 0 0 1 .028-.088h.36L5.52 9a.049.049 0 0 1 .092 0z" class="cls-3" data-name="Path 2945"/>
                <path id="Path_2946" d="M5.612 10.789l.114.342h.36a.049.049 0 0 1 .028.088l-.29.214.109.344a.049.049 0 0 1-.075.054l-.293-.21-.293.21a.049.049 0 0 1-.075-.054l.109-.344-.29-.214a.049.049 0 0 1 .028-.088h.36l.114-.342a.049.049 0 0 1 .094 0z" class="cls-3" data-name="Path 2946"/>
                <path id="Path_2947" d="M5.612 12.578l.114.342h.36a.049.049 0 0 1 .028.088l-.29.214.109.344a.049.049 0 0 1-.075.054l-.293-.21-.293.21a.049.049 0 0 1-.075-.054l.109-.344-.29-.214a.049.049 0 0 1 .028-.088h.36l.114-.342a.049.049 0 0 1 .094 0z" class="cls-3" data-name="Path 2947"/>
                <path id="Path_2948" d="M7 6.334l.114.342h.36a.049.049 0 0 1 .028.088l-.29.214.109.344a.049.049 0 0 1-.075.054l-.293-.21-.293.21a.049.049 0 0 1-.075-.054l.115-.341-.29-.214a.049.049 0 0 1 .028-.088h.36l.114-.342A.049.049 0 0 1 7 6.334z" class="cls-3" data-name="Path 2948"/>
                <path id="Path_2949" d="M7 8.123l.114.342h.36a.049.049 0 0 1 .028.088l-.29.214.109.344a.049.049 0 0 1-.075.054l-.293-.21-.293.21a.049.049 0 0 1-.075-.054L6.7 8.77l-.29-.214a.049.049 0 0 1 .028-.088h.36l.114-.342A.049.049 0 0 1 7 8.123z" class="cls-3" data-name="Path 2949"/>
                <path id="Path_2950" d="M7 9.912l.114.342h.36a.049.049 0 0 1 .028.088l-.29.214.109.344a.049.049 0 0 1-.075.054l-.293-.21-.293.21a.049.049 0 0 1-.075-.054l.109-.344-.29-.214a.049.049 0 0 1 .028-.088h.36l.114-.342a.049.049 0 0 1 .094 0z" class="cls-3" data-name="Path 2950"/>
                <path id="Path_2951" d="M7 11.7l.114.342h.36a.049.049 0 0 1 .028.088l-.29.214.109.344a.049.049 0 0 1-.075.054l-.293-.21-.293.21a.049.049 0 0 1-.075-.054l.109-.344-.29-.214a.049.049 0 0 1 .028-.088h.36l.114-.342a.049.049 0 0 1 .094 0z" class="cls-3" data-name="Path 2951"/>
                <path id="Path_2952" d="M7 13.49l.114.342h.36a.049.049 0 0 1 .028.088l-.29.214.109.344a.049.049 0 0 1-.075.054l-.293-.21-.293.21a.049.049 0 0 1-.075-.054l.109-.344-.29-.214a.049.049 0 0 1 .028-.088h.36l.114-.342a.049.049 0 0 1 .094 0z" class="cls-3" data-name="Path 2952"/>
                <path id="Path_2953" d="M8.389 7.211l.114.342h.36a.049.049 0 0 1 .028.088l-.29.214.109.344a.049.049 0 0 1-.075.054l-.293-.21-.293.21a.049.049 0 0 1-.074-.053l.109-.344-.29-.214a.049.049 0 0 1 .028-.088h.36l.118-.343a.049.049 0 0 1 .089 0z" class="cls-3" data-name="Path 2953"/>
                <path id="Path_2954" d="M8.389 9l.114.342h.36a.049.049 0 0 1 .028.088l-.29.214.109.344a.049.049 0 0 1-.075.054l-.293-.21-.293.21a.049.049 0 0 1-.075-.054l.109-.344-.29-.214a.049.049 0 0 1 .028-.088h.36L8.3 9a.049.049 0 0 1 .089 0z" class="cls-3" data-name="Path 2954"/>
                <path id="Path_2955" d="M8.389 10.789l.114.342h.36a.049.049 0 0 1 .028.088l-.29.214.109.344a.049.049 0 0 1-.075.054l-.293-.21-.293.21a.049.049 0 0 1-.075-.054l.109-.344-.29-.214a.049.049 0 0 1 .028-.088h.36l.114-.342a.049.049 0 0 1 .094 0z" class="cls-3" data-name="Path 2955"/>
                <path id="Path_2956" d="M8.389 12.578l.114.342h.36a.049.049 0 0 1 .028.088l-.29.214.109.344a.049.049 0 0 1-.075.054l-.293-.21-.293.21a.049.049 0 0 1-.075-.054l.109-.344-.29-.214a.049.049 0 0 1 .028-.088h.36l.114-.342a.049.049 0 0 1 .094 0z" class="cls-3" data-name="Path 2956"/>
                <path id="Path_2957" d="M9.778 6.334l.114.342h.36a.049.049 0 0 1 .028.088l-.29.214.109.344a.049.049 0 0 1-.075.054l-.293-.21-.293.21a.049.049 0 0 1-.075-.054l.109-.344-.29-.214a.049.049 0 0 1 .028-.088h.36l.114-.342a.049.049 0 0 1 .094 0z" class="cls-3" data-name="Path 2957"/>
                <path id="Path_2958" d="M9.778 8.123l.114.342h.36a.049.049 0 0 1 .028.088l-.29.214.109.344a.049.049 0 0 1-.075.054l-.293-.21-.293.21a.049.049 0 0 1-.075-.054l.109-.344-.29-.214a.049.049 0 0 1 .028-.088h.36l.114-.342a.049.049 0 0 1 .094 0z" class="cls-3" data-name="Path 2958"/>
                <path id="Path_2959" d="M9.778 9.912l.114.342h.36a.049.049 0 0 1 .028.088l-.29.214.109.344a.049.049 0 0 1-.075.054l-.293-.21-.293.21a.049.049 0 0 1-.075-.054l.109-.344-.29-.214a.049.049 0 0 1 .028-.088h.36l.114-.342a.049.049 0 0 1 .094 0z" class="cls-3" data-name="Path 2959"/>
                <path id="Path_2960" d="M9.778 11.7l.114.342h.36a.049.049 0 0 1 .028.088l-.29.214.109.344a.049.049 0 0 1-.075.054l-.293-.21-.293.21a.049.049 0 0 1-.075-.054l.109-.344-.29-.214a.049.049 0 0 1 .028-.088h.36l.114-.342a.049.049 0 0 1 .094 0z" class="cls-3" data-name="Path 2960"/>
                <path id="Path_2961" d="M9.778 13.49l.114.342h.36a.049.049 0 0 1 .028.088l-.29.214.109.344a.049.049 0 0 1-.075.054l-.293-.21-.293.21a.049.049 0 0 1-.075-.054l.109-.344-.29-.214a.049.049 0 0 1 .028-.088h.36l.114-.342a.048.048 0 0 1 .094 0z" class="cls-3" data-name="Path 2961"/>
                <path id="Path_2962" d="M11.166 7.211l.114.342h.36a.049.049 0 0 1 .028.088l-.29.214.109.344a.049.049 0 0 1-.075.054l-.293-.21-.293.21a.049.049 0 0 1-.075-.054l.109-.344-.29-.214a.049.049 0 0 1 .028-.088h.36l.114-.342a.049.049 0 0 1 .094 0z" class="cls-3" data-name="Path 2962"/>
                <path id="Path_2963" d="M11.166 9l.114.342h.36a.049.049 0 0 1 .028.088l-.29.214.109.344a.049.049 0 0 1-.075.054l-.293-.21-.293.21a.049.049 0 0 1-.075-.054l.109-.344-.29-.214a.049.049 0 0 1 .028-.088h.36L11.074 9a.049.049 0 0 1 .092 0z" class="cls-3" data-name="Path 2963"/>
                <path id="Path_2964" d="M11.166 10.789l.114.342h.36a.049.049 0 0 1 .028.088l-.29.214.109.344a.049.049 0 0 1-.075.054l-.293-.21-.293.21a.049.049 0 0 1-.075-.054l.109-.344-.29-.214a.049.049 0 0 1 .028-.088h.36l.114-.342a.049.049 0 0 1 .094 0z" class="cls-3" data-name="Path 2964"/>
                <path id="Path_2965" d="M11.166 12.578l.114.342h.36a.049.049 0 0 1 .028.088l-.29.214.109.344a.049.049 0 0 1-.075.054l-.293-.21-.293.21a.049.049 0 0 1-.075-.054l.109-.344-.29-.214a.049.049 0 0 1 .028-.088h.36l.114-.342a.049.049 0 0 1 .094 0z" class="cls-3" data-name="Path 2965"/>
                <path id="Path_2966" d="M12.555 6.334l.114.342h.36a.049.049 0 0 1 .028.088l-.29.214.109.344a.049.049 0 0 1-.075.054l-.293-.21-.293.21a.049.049 0 0 1-.075-.054l.109-.344-.29-.214a.049.049 0 0 1 .028-.088h.36l.114-.342a.049.049 0 0 1 .094 0z" class="cls-3" data-name="Path 2966"/>
                <path id="Path_2967" d="M12.555 8.123l.114.342h.36a.049.049 0 0 1 .028.088l-.29.214.109.344a.049.049 0 0 1-.075.054l-.293-.21-.293.21a.049.049 0 0 1-.075-.054l.109-.344-.29-.214a.049.049 0 0 1 .028-.088h.36l.114-.342a.049.049 0 0 1 .094 0z" class="cls-3" data-name="Path 2967"/>
                <path id="Path_2968" d="M12.555 9.912l.114.342h.36a.049.049 0 0 1 .028.088l-.29.214.109.344a.049.049 0 0 1-.075.054l-.293-.21-.293.21a.049.049 0 0 1-.075-.054l.109-.344-.29-.214a.049.049 0 0 1 .028-.088h.36l.114-.342a.049.049 0 0 1 .094 0z" class="cls-3" data-name="Path 2968"/>
                <path id="Path_2969" d="M12.555 11.7l.114.342h.36a.049.049 0 0 1 .028.088l-.29.214.109.344a.049.049 0 0 1-.075.054l-.293-.21-.293.21a.049.049 0 0 1-.075-.054l.109-.344-.29-.214a.049.049 0 0 1 .028-.088h.36l.114-.342a.049.049 0 0 1 .094 0z" class="cls-3" data-name="Path 2969"/>
                <path id="Path_2970" d="M12.555 13.49l.114.342h.36a.049.049 0 0 1 .028.088l-.29.214.109.344a.049.049 0 0 1-.075.054l-.293-.21-.293.21a.049.049 0 0 1-.075-.054l.109-.344-.29-.214a.049.049 0 0 1 .028-.088h.36l.114-.342a.048.048 0 0 1 .094 0z" class="cls-3" data-name="Path 2970"/>
            </g>
        </g>
    </g>
</svg>
