<svg xmlns="http://www.w3.org/2000/svg" width="30.91" height="19.576" viewBox="0 0 30.91 19.576">
    <defs>
        <style>
            .cls-1{fill:#d1d1d6}.cls-2{clip-path:url(#clip-path)}.cls-3{fill:#41479b}.cls-4{fill:#ffe15a}
        </style>
        <clipPath id="clip-path">
            <rect id="Rectangle_1787" width="30.91" height="19.576" class="cls-1" data-name="Rectangle 1787" rx="4" transform="translate(226 344)"/>
        </clipPath>
    </defs>
    <g id="Mask_Group_751" class="cls-2" data-name="Mask Group 751" transform="translate(-226 -344)">
        <g id="european-union" transform="translate(226.515 338.848)">
            <path id="Path_2912" d="M29.364 24.728H.515A.515.515 0 0 1 0 24.213V5.667a.515.515 0 0 1 .515-.515h28.849a.515.515 0 0 1 .515.515v18.546a.515.515 0 0 1-.515.515z" class="cls-3" data-name="Path 2912"/>
            <g id="Group_4087" data-name="Group 4087">
                <path id="Path_2913" d="M15.149 7.393l.207.619.653.005a.088.088 0 0 1 .052.159l-.525.388.2.622a.088.088 0 0 1-.135.1l-.531-.38-.531.38a.088.088 0 0 1-.135-.1l.2-.622-.525-.388a.088.088 0 0 1 .052-.159l.653-.005.207-.619a.088.088 0 0 1 .158 0z" class="cls-4" data-name="Path 2913"/>
                <path id="Path_2914" d="M15.149 20.691l.207.619.653.005a.088.088 0 0 1 .052.159l-.525.388.2.622a.088.088 0 0 1-.135.1l-.531-.38-.531.38a.088.088 0 0 1-.135-.1l.2-.622-.525-.388a.088.088 0 0 1 .052-.159l.653-.005.207-.619a.088.088 0 0 1 .158 0z" class="cls-4" data-name="Path 2914"/>
                <path id="Path_2915" d="M21.8 14.042l.207.619.653.005a.088.088 0 0 1 .052.159l-.525.388.2.622a.088.088 0 0 1-.135.1l-.531-.38-.531.38a.088.088 0 0 1-.135-.1l.2-.622-.525-.388a.088.088 0 0 1 .052-.159l.653-.005.207-.619a.088.088 0 0 1 .158 0z" class="cls-4" data-name="Path 2915"/>
                <path id="Path_2916" d="M8.5 14.042l.207.619.653.005a.088.088 0 0 1 .052.159l-.525.388.2.622a.088.088 0 0 1-.135.1l-.531-.38-.531.38a.088.088 0 0 1-.135-.1l.2-.622-.525-.388a.088.088 0 0 1 .052-.159l.653-.005.207-.619a.088.088 0 0 1 .158 0z" class="cls-4" data-name="Path 2916"/>
                <path id="Path_2917" d="M9.5 10.57l.207.619.653.005a.088.088 0 0 1 .052.159l-.525.388.2.622a.088.088 0 0 1-.135.1l-.531-.38-.531.38a.088.088 0 0 1-.135-.1l.2-.622-.525-.388a.088.088 0 0 1 .052-.159l.653-.005.207-.619a.088.088 0 0 1 .158 0z" class="cls-4" data-name="Path 2917"/>
                <path id="Path_2918" d="M21.015 17.219l.207.619.653.005a.088.088 0 0 1 .052.159l-.525.388.2.622a.088.088 0 0 1-.135.1l-.531-.38-.531.38a.088.088 0 0 1-.135-.1l.2-.622-.533-.39a.088.088 0 0 1 .052-.159l.653-.005.207-.619a.088.088 0 0 1 .166.002z" class="cls-4" data-name="Path 2918"/>
                <path id="Path_2919" d="M18.581 8.136l.207.619.653.005a.088.088 0 0 1 .052.159l-.525.388.2.622a.088.088 0 0 1-.135.1l-.531-.38-.531.38a.088.088 0 0 1-.135-.1l.2-.622-.536-.388a.088.088 0 0 1 .052-.159l.653-.005.207-.619a.088.088 0 0 1 .169 0z" class="cls-4" data-name="Path 2919"/>
                <path id="Path_2920" d="M11.932 19.652l.207.619.653.005a.088.088 0 0 1 .052.159l-.525.388.2.622a.088.088 0 0 1-.135.1l-.531-.38-.531.38a.088.088 0 0 1-.135-.1l.2-.622-.525-.388a.088.088 0 0 1 .052-.159l.653-.005.207-.619a.088.088 0 0 1 .158 0z" class="cls-4" data-name="Path 2920"/>
                <path id="Path_2921" d="M20.848 10.57l-.207.619-.653.005a.088.088 0 0 0-.052.159l.525.388-.2.622a.088.088 0 0 0 .135.1l.531-.38.531.38a.088.088 0 0 0 .135-.1l-.2-.622.525-.388a.088.088 0 0 0-.052-.159l-.653-.005-.207-.619a.088.088 0 0 0-.158 0z" class="cls-4" data-name="Path 2921"/>
                <path id="Path_2922" d="M9.332 17.219l-.207.619-.653.005a.088.088 0 0 0-.051.157l.525.388-.2.622a.088.088 0 0 0 .135.1l.531-.38.531.38a.088.088 0 0 0 .135-.1l-.2-.622.532-.388a.088.088 0 0 0-.052-.159l-.653-.005-.205-.617a.088.088 0 0 0-.168 0z" class="cls-4" data-name="Path 2922"/>
                <path id="Path_2923" d="M11.765 8.136l-.207.619-.653.005a.088.088 0 0 0-.052.159l.525.388-.2.622a.088.088 0 0 0 .135.1l.531-.38.531.38a.088.088 0 0 0 .135-.1l-.2-.622.525-.388a.088.088 0 0 0-.052-.159l-.653-.005-.207-.619a.088.088 0 0 0-.158 0z" class="cls-4" data-name="Path 2923"/>
                <path id="Path_2924" d="M18.414 19.652l-.207.619-.653.005a.088.088 0 0 0-.052.159l.525.388-.2.622a.088.088 0 0 0 .135.1l.531-.38.531.38a.088.088 0 0 0 .135-.1l-.2-.622.525-.388a.088.088 0 0 0-.052-.159l-.653-.005-.207-.619a.088.088 0 0 0-.158 0z" class="cls-4" data-name="Path 2924"/>
            </g>
        </g>
    </g>
</svg>
