<svg xmlns="http://www.w3.org/2000/svg" width="35.302" height="35.301" viewBox="0 0 35.302 35.301"><defs><style>.a{fill:#e6e6e6;}</style></defs><g transform="translate(0 0)"><ellipse class="a" cx="17.651" cy="17.651" rx="17.651" ry="17.651"/><g transform="translate(8.825 8.825)"><g transform="translate(0)"><path d="M25.72,3.054A3.057,3.057,0,0,0,22.666,0H10.476a3.054,3.054,0,0,0-.006,6.108L9.542,16.75a1.952,1.952,0,0,0,1.946,2.123H21.655A1.952,1.952,0,0,0,23.6,16.75L22.673,6.108A3.057,3.057,0,0,0,25.72,3.054Zm-3.6,14.293a.634.634,0,0,1-.466.205H11.488a.632.632,0,0,1-.63-.687L11.979,3.715l9.158-.025,1.148,13.176A.632.632,0,0,1,22.121,17.347Zm.545-13.22H22.5l-.048-.552a1.285,1.285,0,0,0-1.288-1.181H11.979A1.286,1.286,0,0,0,10.69,3.575l-.048.552h-.166a1.073,1.073,0,1,1,0-2.146h12.19a1.073,1.073,0,1,1,0,2.146Z" transform="translate(-7.422)"/><path d="M155.693,221.657a.67.67,0,0,0-.7.622l-.33,5.888a.661.661,0,0,0,.622.7h.037a.66.66,0,0,0,.659-.623l.33-5.888A.66.66,0,0,0,155.693,221.657Z" transform="translate(-148.962 -213.071)"/><path d="M251.938,112.246a.66.66,0,0,0-.66.66v10.676a.66.66,0,1,0,1.321,0V112.906A.66.66,0,0,0,251.938,112.246Z" transform="translate(-241.833 -107.898)"/></g></g></g></svg>