<svg xmlns="http://www.w3.org/2000/svg" xmlns:xlink="http://www.w3.org/1999/xlink" width="111" height="111" viewBox="0 0 111 111"><defs><style>.a{fill:#fff;}.b{clip-path:url(#a);}.c{fill:#e84e61;}</style><clipPath id="a"><rect class="a" width="111" height="111" transform="translate(329 1105)"/></clipPath></defs><g class="b" transform="translate(-329 -1105)"><g transform="translate(330.85 1105)"><path class="c" d="M105.45,24.05H62.9V5.55A5.55,5.55,0,0,0,57.35,0H5.55A5.55,5.55,0,0,0,0,5.55v99.9A5.55,5.55,0,0,0,5.55,111h51.8a5.55,5.55,0,0,0,5.55-5.55V85.1h37a1.85,1.85,0,0,0,1.85-1.85v-3.7h3.7a1.85,1.85,0,0,0,1.85-1.85V25.9A1.85,1.85,0,0,0,105.45,24.05ZM62.9,33.3H87.083A12.993,12.993,0,0,0,98.05,44.271v15.06A12.985,12.985,0,0,0,87.081,70.3H62.9ZM5.55,3.7h51.8A1.85,1.85,0,0,1,59.2,5.55v3.7H42.55a1.851,1.851,0,0,0-1.539.823L37.86,14.8H25.04l-3.145-4.727A1.85,1.85,0,0,0,20.35,9.25H3.7V5.55A1.85,1.85,0,0,1,5.55,3.7Zm51.8,103.6H5.55a1.85,1.85,0,0,1-1.85-1.85V96.2H59.2v9.25A1.85,1.85,0,0,1,57.35,107.3ZM59.2,92.5H3.7V12.95H19.36l3.145,4.727a1.85,1.85,0,0,0,1.545.823h14.8a1.851,1.851,0,0,0,1.539-.823L43.54,12.95H59.2ZM98.05,81.4H62.9V79.55H98.05Zm5.55-5.55H62.9V74H88.8a1.85,1.85,0,0,0,1.85-1.85A9.261,9.261,0,0,1,99.9,62.9a1.85,1.85,0,0,0,1.85-1.85V42.55A1.85,1.85,0,0,0,99.9,40.7,9.169,9.169,0,0,1,92,36.26a9.045,9.045,0,0,1-1.352-4.81A1.85,1.85,0,0,0,88.8,29.6H62.9V27.75h40.7Zm0,0"/><path class="c" d="M35.15,101.75a3.7,3.7,0,1,1-3.7-3.7A3.7,3.7,0,0,1,35.15,101.75Zm0,0"/><path class="c" d="M25.9,7.4H37v3.7H25.9Zm0,0"/><path class="c" d="M9.25,24.05H11.1v-3.7H7.4A1.85,1.85,0,0,0,5.55,22.2v3.7h3.7Zm0,0"/><path class="c" d="M55.5,20.35H51.8v3.7h1.85V25.9h3.7V22.2A1.85,1.85,0,0,0,55.5,20.35Zm0,0"/><path class="c" d="M9.25,85.1H5.55v3.7A1.85,1.85,0,0,0,7.4,90.65h3.7v-3.7H9.25Zm0,0"/><path class="c" d="M53.65,86.95H51.8v3.7h3.7a1.85,1.85,0,0,0,1.85-1.85V85.1h-3.7Zm0,0"/><path class="c" d="M31.45,29.6a22.2,22.2,0,1,0,22.2,22.2A22.2,22.2,0,0,0,31.45,29.6Zm0,40.7a18.5,18.5,0,1,1,18.5-18.5A18.5,18.5,0,0,1,31.45,70.3Zm0,0"/><path class="c" d="M27.208,43.858l-2.616-2.616-5.55,5.55A1.85,1.85,0,0,0,20.35,49.95h22.2v-3.7H24.816Zm0,0"/><path class="c" d="M40.7,53.65H18.5v3.7H36.234l-2.392,2.392,2.616,2.616,5.55-5.55A1.85,1.85,0,0,0,40.7,53.65Zm0,0"/><path class="c" d="M77.7,48.1h3.7a5.55,5.55,0,0,0-5.55-5.55V40.7h-3.7v1.85a5.55,5.55,0,1,0,0,11.1v3.7A1.85,1.85,0,0,1,70.3,55.5H66.6a5.55,5.55,0,0,0,5.55,5.55V62.9h3.7V61.05a5.55,5.55,0,1,0,0-11.1v-3.7A1.85,1.85,0,0,1,77.7,48.1Zm0,7.4a1.85,1.85,0,0,1-1.85,1.85v-3.7A1.85,1.85,0,0,1,77.7,55.5Zm-5.55-5.55a1.85,1.85,0,0,1,0-3.7Zm0,0"/></g></g></svg>