<svg xmlns="http://www.w3.org/2000/svg" width="111" height="109.175" viewBox="0 0 111 109.175"><defs><style>.a{fill:#e84e61;}</style></defs><path class="a" d="M-3978.15-1198.825a1.85,1.85,0,0,1-1.85-1.85v-62.9a1.85,1.85,0,0,1,1.85-1.85h10.232a26.351,26.351,0,0,1,2.9-3.515,25.8,25.8,0,0,1,15.253-7.4,25.9,25.9,0,0,1,15.8-29.873,25.9,25.9,0,0,1,31.889,11.187,25.625,25.625,0,0,1,2.94,7.92,25.786,25.786,0,0,1,20.589,21.68h7.688a1.85,1.85,0,0,1,1.85,1.85v62.9a1.849,1.849,0,0,1-1.85,1.85Zm1.85-3.7h103.6v-59.2h-103.6Zm71.625-62.9h22.412a22.149,22.149,0,0,0-16.38-17.781A25.964,25.964,0,0,1-3904.676-1265.425Zm-5.2,0a22.17,22.17,0,0,0,7.335-19.819,21.9,21.9,0,0,0-2.735-7.931,22.23,22.23,0,0,0-30.327-8.128,22.268,22.268,0,0,0-10.024,26.059,21.452,21.452,0,0,0,1.894,4.269,22.193,22.193,0,0,0,4.57,5.55h12.811v-1.85h3.7v1.85Zm-52.52-.893c-.287.287-.536.6-.805.893h18.855a25.891,25.891,0,0,1-2.59-3.7,25.135,25.135,0,0,1-1.687-3.6A22.088,22.088,0,0,0-3962.394-1266.318Zm76.744,60.093v-3.7h5.55v-1.85h3.7v3.7a1.85,1.85,0,0,1-1.85,1.85Zm-7.4,0v-3.7h3.7v3.7Zm-7.4,0v-3.7h3.7v3.7Zm-7.4,0v-3.7h3.7v3.7Zm-7.4,0v-3.7h3.7v3.7Zm-7.4,0v-3.7h3.7v3.7Zm-7.4,0v-3.7h3.7v3.7Zm-7.4,0v-3.7h3.7v3.7Zm-7.4,0v-3.7h3.7v3.7Zm-7.4,0v-3.7h3.7v3.7Zm-7.4,0v-3.7h3.7v3.7Zm-11.1,0a1.849,1.849,0,0,1-1.85-1.85v-3.7h3.7v1.85h5.55v3.7Zm65.423-7.4c-8.531,0-15.473-8.3-15.473-18.5a20.332,20.332,0,0,1,4.419-12.95,14.376,14.376,0,0,1,11.054-5.551h19.677a1.85,1.85,0,0,1,1.85,1.85v33.3a1.85,1.85,0,0,1-1.85,1.85Zm-8.19-29.1a16.864,16.864,0,0,0-3.582,10.6c0,8.16,5.281,14.8,11.772,14.8h17.827v-29.6h-17.827A10.565,10.565,0,0,0-3913.518-1242.723Zm33.417,27.249v-33.3h3.7v33.3Zm-92.5-3.7v-3.7h3.7v3.7Zm64.75-12.949a7.4,7.4,0,0,1,7.4-7.4,7.4,7.4,0,0,1,7.4,7.4,7.4,7.4,0,0,1-7.4,7.4A7.4,7.4,0,0,1-3907.85-1232.124Zm3.7,0a3.7,3.7,0,0,0,3.7,3.7,3.7,3.7,0,0,0,3.7-3.7,3.7,3.7,0,0,0-3.7-3.7A3.7,3.7,0,0,0-3904.15-1232.124Zm-68.45,5.55v-3.7h3.7v3.7Zm0-7.4v-3.7h3.7v3.7Zm0-7.4v-3.7h3.7v3.7Zm92.5-11.1v-1.85h-5.55v-3.7h7.4a1.85,1.85,0,0,1,1.85,1.85v3.7Zm-92.5,0v-3.7a1.85,1.85,0,0,1,1.85-1.85h7.4v3.7h-5.55v1.85Zm79.549-1.85v-3.7h3.7v3.7Zm-7.4,0v-3.7h3.7v3.7Zm-7.4,0v-3.7h3.7v3.7Zm-7.4,0v-3.7h3.7v3.7Zm-7.4,0v-3.7h3.7v3.7Zm-7.4,0v-3.7h3.7v3.7Zm-7.4,0v-3.7h3.7v3.7Zm-7.4,0v-3.7h3.7v3.7Zm-7.4,0v-3.7h3.7v3.7Zm-7.4,0v-3.7h3.7v3.7Zm21.821-15.37,11.06-11.059a2.986,2.986,0,0,1-.232-1.158,3,3,0,0,1,2-2.83v-8.17h2v8.171a3,3,0,0,1,2,2.83,3,3,0,0,1-3,3,2.986,2.986,0,0,1-1.424-.359l-10.991,10.991Zm28.129-10.53v-3.7h3.7v3.7Zm-33.3,0v-3.7h3.7v3.7Zm16.676-16.65v-3.7h3.7v3.7Z" transform="translate(3980 1308)"/></svg>