<svg xmlns="http://www.w3.org/2000/svg" width="109.7" height="111" viewBox="0 0 109.7 111"><defs><style>.a{fill:#e84e61;}</style></defs><path class="a" d="M-3943.684-1197.223a1.647,1.647,0,0,1-.82-1.423V-1213.6h-26.053a9.453,9.453,0,0,1-9.443-9.443v-37.029a1.646,1.646,0,0,1,1.646-1.646,1.646,1.646,0,0,1,1.646,1.646v4.9a8.456,8.456,0,0,1,5.209-1.79,8.46,8.46,0,0,1,5.208,1.79v-16.082a5.585,5.585,0,0,1,5.579-5.578h71.194a5.585,5.585,0,0,1,5.578,5.578v45.583a5.585,5.585,0,0,1-5.578,5.58h-1v3.2h10.781a6.159,6.159,0,0,0,6.152-6.152v-43.833a1.645,1.645,0,0,1,1.645-1.645,1.644,1.644,0,0,1,1.645,1.645v43.833a9.453,9.453,0,0,1-9.442,9.443h-10.781v14.958a1.646,1.646,0,0,1-.82,1.423,1.634,1.634,0,0,1-.825.222,1.644,1.644,0,0,1-.817-.217l-7.63-4.361-7.631,4.361a1.645,1.645,0,0,1-1.634,0l-7.63-4.361-7.631,4.361a1.643,1.643,0,0,1-1.633,0l-7.633-4.361-7.631,4.361a1.646,1.646,0,0,1-.818.217A1.643,1.643,0,0,1-3943.684-1197.223Zm26.989-7.68,7.631,4.361,7.63-4.361a1.645,1.645,0,0,1,1.634,0l5.984,3.421v-61.641a10.437,10.437,0,0,0-10.425-10.426h-41.784a13.689,13.689,0,0,1,4.813,10.426v61.641l5.986-3.421a1.647,1.647,0,0,1,.817-.217,1.646,1.646,0,0,1,.817.217l7.631,4.361,7.631-4.361a1.645,1.645,0,0,1,.817-.217A1.645,1.645,0,0,1-3916.7-1204.9Zm-60.013-18.144a6.157,6.157,0,0,0,6.151,6.151h26.053v-46.227a10.437,10.437,0,0,0-10.426-10.426h-5.782a2.288,2.288,0,0,0-2.286,2.286v45.583a2.29,2.29,0,0,0,2.286,2.288h12.37a1.645,1.645,0,0,1,1.645,1.646,1.645,1.645,0,0,1-1.645,1.646h-12.37a5.586,5.586,0,0,1-5.579-5.581v-16.08a8.454,8.454,0,0,1-5.208,1.79,8.45,8.45,0,0,1-5.209-1.79Zm86.185-40.076v39.731h1a2.29,2.29,0,0,0,2.286-2.288v-45.583a2.291,2.291,0,0,0-2.286-2.287h-5.823A13.69,13.69,0,0,1-3890.523-1263.123Zm-86.185,14.653a5.214,5.214,0,0,0,5.209,5.208,5.215,5.215,0,0,0,5.208-5.2v-.024a5.215,5.215,0,0,0-5.208-5.2A5.215,5.215,0,0,0-3976.708-1248.47Zm59.461,37.934a.955.955,0,0,1-.653-.243,1.118,1.118,0,0,1-.437-.887v-.112c-2.744-.171-4.652-1.661-4.652-2.9,0-.658.579-1.673,1.35-1.673a2.04,2.04,0,0,1,1.144.59,4.847,4.847,0,0,0,2.158,1.093v-4.549c-1.8-.677-4.236-1.613-4.236-4.591,0-2.422,1.543-4.067,4.236-4.518v-.317a1.131,1.131,0,0,1,1.13-1.13,1.131,1.131,0,0,1,1.13,1.13v.246c1.761.121,3.624.671,3.624,1.862,0,.557-.387,1.649-1.281,1.649a1.923,1.923,0,0,1-.846-.287,4.668,4.668,0,0,0-1.5-.522v4.053c2.1.812,4.038,1.968,4.039,4.859a4.717,4.717,0,0,1-4.038,4.88v.239a1.131,1.131,0,0,1-1.131,1.13Zm1.17-4.285a1.706,1.706,0,0,0,1.109-1.663,1.936,1.936,0,0,0-1.109-1.777Zm-3.566-9.289c0,.868.618,1.291,1.306,1.606v-3.059C-3919.191-1225.309-3919.643-1224.808-3919.643-1224.11Zm-1.888-9.5a1.645,1.645,0,0,1-1.645-1.646,1.645,1.645,0,0,1,1.645-1.645h22.823a1.646,1.646,0,0,1,1.646,1.645,1.646,1.646,0,0,1-1.646,1.646Zm-14.263,0a1.645,1.645,0,0,1-1.645-1.646,1.645,1.645,0,0,1,1.645-1.645h7.023a1.645,1.645,0,0,1,1.646,1.645,1.646,1.646,0,0,1-1.646,1.646Zm55.681-9.046v-11.631a1.646,1.646,0,0,1,1.646-1.646,1.646,1.646,0,0,1,1.646,1.646v11.631a1.646,1.646,0,0,1-1.646,1.646A1.646,1.646,0,0,1-3880.114-1242.655Zm-41.417.791a1.646,1.646,0,0,1-1.645-1.646,1.647,1.647,0,0,1,1.645-1.646h22.823a1.647,1.647,0,0,1,1.646,1.646,1.646,1.646,0,0,1-1.646,1.646Zm-14.263,0a1.646,1.646,0,0,1-1.645-1.646,1.647,1.647,0,0,1,1.645-1.646h7.023a1.647,1.647,0,0,1,1.646,1.646,1.646,1.646,0,0,1-1.646,1.646Zm14.263-8.255a1.646,1.646,0,0,1-1.645-1.646,1.647,1.647,0,0,1,1.645-1.646h22.823a1.647,1.647,0,0,1,1.646,1.646,1.646,1.646,0,0,1-1.646,1.646Zm-14.263,0a1.646,1.646,0,0,1-1.645-1.646,1.647,1.647,0,0,1,1.645-1.646h7.023a1.647,1.647,0,0,1,1.646,1.646,1.646,1.646,0,0,1-1.646,1.646Zm14.263-8.216a1.647,1.647,0,0,1-1.645-1.646,1.646,1.646,0,0,1,1.645-1.646h22.823a1.646,1.646,0,0,1,1.646,1.646,1.647,1.647,0,0,1-1.646,1.646Zm-14.263,0a1.647,1.647,0,0,1-1.645-1.646,1.646,1.646,0,0,1,1.645-1.646h7.023a1.646,1.646,0,0,1,1.646,1.646,1.647,1.647,0,0,1-1.646,1.646Zm-44.206-7.229v-8.33a9.454,9.454,0,0,1,9.443-9.443h2.6v-16.925a7.745,7.745,0,0,1,7.735-7.738h51.938a8.255,8.255,0,0,1,8.244,8.246v16.417h20.3a9.454,9.454,0,0,1,9.443,9.443v1.527a1.645,1.645,0,0,1-1.646,1.645,1.644,1.644,0,0,1-1.645-1.645v-1.527a6.158,6.158,0,0,0-6.152-6.151h-90.814a6.157,6.157,0,0,0-6.151,6.151v8.33a1.646,1.646,0,0,1-1.646,1.646A1.646,1.646,0,0,1-3980-1265.563Zm15.331-17.774h61.335v-4.753h-61.335Zm0-8.045h61.335v-4.713h-61.335Zm0-8.881v.876h61.335v-.368a4.96,4.96,0,0,0-4.952-4.955h-51.939A4.45,4.45,0,0,0-3964.669-1300.262Zm40.945,33.711a1.646,1.646,0,0,1-1.647-1.645,1.647,1.647,0,0,1,1.647-1.646h22.822a1.646,1.646,0,0,1,1.646,1.646,1.645,1.645,0,0,1-1.646,1.645Zm-14.264,0a1.646,1.646,0,0,1-1.647-1.645,1.646,1.646,0,0,1,1.647-1.646h7.022a1.646,1.646,0,0,1,1.645,1.646,1.645,1.645,0,0,1-1.645,1.645Z" transform="translate(3980 1308)"/></svg>