<svg xmlns="http://www.w3.org/2000/svg" id="Logout" width="30" height="30.002" viewBox="0 0 30 30.002">
    <defs>
        <style>
            .cls-1{fill:#6d6d80}
        </style>
    </defs>
    <g id="Group_1562" data-name="Group 1562">
        <path id="Path_2014" d="M21.93 9.733a.927.927 0 0 0-.2-.3l-2.748-2.748a.917.917 0 0 0-1.3 1.3l1.185 1.185h-5.116a.917.917 0 0 0 0 1.833h5.12l-1.185 1.185a.917.917 0 1 0 1.3 1.3l2.749-2.749a.908.908 0 0 0 .2-.3.918.918 0 0 0-.005-.706z" class="cls-1" data-name="Path 2014" transform="translate(8.001 3.501)"/>
        <path id="Path_2015" d="M23.141 17.5a1.309 1.309 0 0 0-1.361 1.25V25h-5.445V5a1.27 1.27 0 0 0-.971-1.2l-4.727-1.3h11.142v6.25a1.366 1.366 0 0 0 2.722 0v-7.5A1.309 1.309 0 0 0 23.141 0H1.362a1.311 1.311 0 0 0-.14.024 1.475 1.475 0 0 0-.184.03 1.437 1.437 0 0 0-.394.155C.615.226.578.227.549.247.538.255.534.269.523.276a1.272 1.272 0 0 0-.362.4.964.964 0 0 0-.038.1 1.121 1.121 0 0 0-.108.293.715.715 0 0 0 0 .109C.018 1.2 0 1.225 0 1.25v25a1.281 1.281 0 0 0 1.094 1.225l13.612 2.5a1.375 1.375 0 0 0 .267.025 1.436 1.436 0 0 0 .863-.284 1.214 1.214 0 0 0 .5-.966V27.5h6.806a1.309 1.309 0 0 0 1.361-1.25v-7.5a1.309 1.309 0 0 0-1.362-1.25z" class="cls-1" data-name="Path 2015" transform="translate(-.001)"/>
    </g>
</svg>
