<svg xmlns="http://www.w3.org/2000/svg" width="30" height="23.571" viewBox="0 0 30 23.571">
    <defs>
        <style>
            .cls-1{fill:#6d6d80}
        </style>
    </defs>
    <g id="Msg" transform="translate(0 -3.214)">
        <g id="Group_1638" data-name="Group 1638">
            <path id="Path_2094" d="M2.879 10.48q.569.4 3.432 2.386t4.389 3.055q.167.117.711.511t.9.636q.36.243.871.544a5.051 5.051 0 0 0 .963.452 2.652 2.652 0 0 0 .837.151h.034a2.655 2.655 0 0 0 .837-.151 5.056 5.056 0 0 0 .963-.452q.51-.3.87-.544t.9-.636q.544-.394.712-.511 1.54-1.071 7.835-5.441a7.953 7.953 0 0 0 2.042-2.059A4.421 4.421 0 0 0 30 5.893a2.7 2.7 0 0 0-2.679-2.679H2.678a2.391 2.391 0 0 0-1.984.87A3.379 3.379 0 0 0 0 6.261a3.91 3.91 0 0 0 .921 2.285 8.31 8.31 0 0 0 1.958 1.934z" class="cls-1" data-name="Path 2094"/>
            <path id="Path_2095" d="M28.326 12.271q-5.49 3.716-8.337 5.776-.954.7-1.549 1.1a9.556 9.556 0 0 1-1.582.8 4.817 4.817 0 0 1-1.841.41h-.034a4.819 4.819 0 0 1-1.841-.41 9.561 9.561 0 0 1-1.582-.8q-.594-.393-1.548-1.1-2.26-1.657-8.32-5.776A8.868 8.868 0 0 1 0 10.815v13.292A2.579 2.579 0 0 0 .787 26a2.579 2.579 0 0 0 1.892.787h24.643A2.687 2.687 0 0 0 30 24.107V10.815a9.232 9.232 0 0 1-1.674 1.456z" class="cls-1" data-name="Path 2095"/>
        </g>
    </g>
</svg>
