<svg xmlns="http://www.w3.org/2000/svg" width="43.89" height="43.89" viewBox="0 0 43.89 43.89">
    <defs>
        <style>
            .cls-1{fill:#e6e6e6}.cls-2{clip-path:url(#clip-path)}
        </style>
        <clipPath id="clip-path">
            <path id="Rectangle_1779" d="M0 0h43.89v43.89H0z" class="cls-1" data-name="Rectangle 1779"/>
        </clipPath>
    </defs>
    <g id="Mask_Group_716" class="cls-2" data-name="Mask Group 716">
        <g id="tap_1_" data-name="tap (1)" transform="translate(0 4.987)">
            <g id="Group_4005" data-name="Group 4005" transform="translate(5.158 3.083)">
                <g id="Group_4004" data-name="Group 4004">
                    <path id="Path_2703" d="M38.935 14.137l-7.5-8.243a3.819 3.819 0 0 0-5.4.012 3.734 3.734 0 0 0-.966 1.65 3.822 3.822 0 0 0-5.987 1.993 3.823 3.823 0 0 0-5.017.347 3.776 3.776 0 0 0-.958 1.61L9.57 7.97a3.819 3.819 0 0 0-5.4 5.4l13.582 13.582L9.7 28.217a4.469 4.469 0 0 0-3.818 4.4 3 3 0 0 0 2.988 2.996h18.811a10.9 10.9 0 0 0 7.758-3.213l3.138-3.138a10.959 10.959 0 0 0 .357-15.124zM37.167 27.85l-3.138 3.138a8.919 8.919 0 0 1-6.348 2.629H8.87a1 1 0 0 1-1-1 2.468 2.468 0 0 1 2.121-2.43l10-1.572a1 1 0 0 0 .551-1.69L5.58 11.96a1.824 1.824 0 0 1 2.58-2.58l9.981 9.981a1 1 0 1 0 1.409-1.412l-4.076-4.076a1.824 1.824 0 0 1 2.58-2.58l4.078 4.078a1 1 0 1 0 1.409-1.412l-2.081-2.081a1.824 1.824 0 0 1 2.58-2.58l2.091 2.091a1 1 0 0 0 1.39-1.43l-.086-.086a1.824 1.824 0 0 1 2.556-2.603l7.469 8.209a8.966 8.966 0 0 1-.293 12.371z" data-name="Path 2703" transform="translate(-3.055 -4.781)"/>
                </g>
            </g>
            <g id="Group_4007" data-name="Group 4007">
                <g id="Group_4006" data-name="Group 4006">
                    <path id="Path_2704" d="M17.149 8.247A8.969 8.969 0 1 0 5.293 20.105a1 1 0 0 0 .822-1.819 6.974 6.974 0 1 1 9.217-9.217 1 1 0 1 0 1.817-.822z" data-name="Path 2704" transform="translate(0 -2.955)"/>
                </g>
            </g>
        </g>
    </g>
</svg>
