<svg xmlns="http://www.w3.org/2000/svg" width="43.841" height="43.841" viewBox="0 0 43.841 43.841">
    <defs>
        <style>
            .cls-1{fill:#e6e6e6}.cls-2{clip-path:url(#clip-path)}.cls-3{stroke:#000;stroke-width:.2px}
        </style>
        <clipPath id="clip-path">
            <path id="Rectangle_1781" d="M0 0h43.841v43.841H0z" class="cls-1" data-name="Rectangle 1781"/>
        </clipPath>
    </defs>
    <g id="Mask_Group_719" class="cls-2" data-name="Mask Group 719">
        <g id="problem" transform="translate(.686)">
            <path id="Path_2715" d="M7.717 29.386a.684.684 0 0 1-.685-.685 4.8 4.8 0 0 1 4.795-4.794.685.685 0 1 1 0 1.37A3.428 3.428 0 0 0 8.4 28.7a.684.684 0 0 1-.683.686zm0 0" class="cls-3" data-name="Path 2715" transform="translate(3.243 11.03)"/>
            <path id="Path_2716" d="M13.269 25.277h-2.74a.685.685 0 1 1 0-1.37h2.74a.685.685 0 1 1 0 1.37zm0 0" class="cls-3" data-name="Path 2716" transform="translate(4.54 11.03)"/>
            <path id="Path_2717" d="M7.717 30.082a.684.684 0 0 1-.685-.685v-1.859a.685.685 0 0 1 1.37 0V29.4a.684.684 0 0 1-.685.682zm0 0" class="cls-3" data-name="Path 2717" transform="translate(3.243 12.389)"/>
            <path id="Path_2718" d="M23.076 29.386a.684.684 0 0 1-.685-.685 3.428 3.428 0 0 0-3.425-3.424.685.685 0 1 1 0-1.37 4.8 4.8 0 0 1 4.795 4.793.684.684 0 0 1-.685.686zm0 0" class="cls-3" data-name="Path 2718" transform="translate(8.433 11.03)"/>
            <path id="Path_2719" d="M17.091 25.277a.685.685 0 1 1 0-1.37h2.74a.685.685 0 0 1 0 1.37zm0 0" class="cls-3" data-name="Path 2719" transform="translate(7.568 11.03)"/>
            <path id="Path_2720" d="M21.778 30.082a.684.684 0 0 1-.685-.685v-1.859a.685.685 0 0 1 1.37 0V29.4a.684.684 0 0 1-.685.682zm0 0" class="cls-3" data-name="Path 2720" transform="translate(9.73 12.389)"/>
            <path id="Path_2721" d="M26.463 30.433H8.654a.685.685 0 0 1 0-1.37h17.809a.685.685 0 0 1 0 1.37zm0 0" class="cls-3" data-name="Path 2721" transform="translate(3.675 13.409)"/>
            <path id="Path_2722" d="M12.4 25.969a.684.684 0 0 1-.685-.685v-2.192a.685.685 0 0 1 1.37 0v2.192a.684.684 0 0 1-.685.685zm0 0" class="cls-3" data-name="Path 2722" transform="translate(5.405 10.338)"/>
            <path id="Path_2723" d="M17.091 25.969a.684.684 0 0 1-.685-.685v-2.192a.685.685 0 0 1 1.37 0v2.192a.684.684 0 0 1-.685.685zm0 0" class="cls-3" data-name="Path 2723" transform="translate(7.568 10.338)"/>
            <path id="Path_2724" d="M17.126 26.718a8.229 8.229 0 0 1-8.22-8.22.685.685 0 0 1 1.37 0 6.85 6.85 0 0 0 13.7 0 .685.685 0 1 1 1.37 0 8.229 8.229 0 0 1-8.22 8.22zm0 0" class="cls-3" data-name="Path 2724" transform="translate(4.108 8.218)"/>
            <path id="Path_2725" d="M9.592 21.13a.684.684 0 0 1-.685-.685V14.28a.685.685 0 1 1 1.37 0v6.165a.684.684 0 0 1-.685.685zm0 0" class="cls-3" data-name="Path 2725" transform="translate(4.108 6.272)"/>
            <path id="Path_2726" d="M19.9 21.131a.684.684 0 0 1-.685-.685V14.28a.685.685 0 0 1 1.37 0v6.166a.684.684 0 0 1-.685.685zm0 0" class="cls-3" data-name="Path 2726" transform="translate(8.865 6.272)"/>
            <path id="Path_2727" d="M20.985 16.046a.684.684 0 0 1-.685-.685 2.743 2.743 0 0 0-2.74-2.74.685.685 0 0 1 0-1.37 4.114 4.114 0 0 1 4.11 4.11.684.684 0 0 1-.685.685zm0 0" class="cls-3" data-name="Path 2727" transform="translate(7.784 5.191)"/>
            <path id="Path_2728" d="M17.56 13.486a.684.684 0 0 1-.685-.685v-2.74a.685.685 0 1 1 1.37 0V12.8a.684.684 0 0 1-.685.686zm0 0" class="cls-3" data-name="Path 2728" transform="translate(7.784 4.326)"/>
            <path id="Path_2729" d="M19.29 10.746h-5.48a.685.685 0 1 1 0-1.37h5.48a.685.685 0 0 1 0 1.37zm0 0" class="cls-3" data-name="Path 2729" transform="translate(6.054 4.326)"/>
            <path id="Path_2730" d="M9.592 16.911a.684.684 0 0 1-.685-.685 6.857 6.857 0 0 1 6.85-6.849.685.685 0 0 1 0 1.37 5.486 5.486 0 0 0-5.48 5.479.684.684 0 0 1-.685.685zm0 0" class="cls-3" data-name="Path 2730" transform="translate(4.108 4.326)"/>
            <path id="Path_2731" d="M20.552 17.957a.684.684 0 0 1-.484-.2L18.013 15.7a.685.685 0 0 1 .969-.969l2.055 2.055a.685.685 0 0 1-.484 1.169zm0 0" class="cls-3" data-name="Path 2731" transform="translate(8.217 6.705)"/>
            <path id="Path_2732" d="M16.478 17.272a13.592 13.592 0 0 1-5.8-1.452.685.685 0 0 1 .649-1.207 12.387 12.387 0 0 0 5.151 1.287 12.292 12.292 0 0 0 5.155-1.288.685.685 0 1 1 .649 1.206 13.569 13.569 0 0 1-5.804 1.454zm0 0" class="cls-3" data-name="Path 2732" transform="translate(4.757 6.704)"/>
            <path id="Path_2733" d="M9.592 17.957a.685.685 0 0 1-.484-1.169l2.055-2.055a.685.685 0 0 1 .969.969l-2.055 2.055a.684.684 0 0 1-.485.2zm0 0" class="cls-3" data-name="Path 2733" transform="translate(4.108 6.705)"/>
            <path id="Path_2734" d="M13.774 26.646a.684.684 0 0 1-.484-.2l-1.37-1.369a.685.685 0 1 1 .969-.969l1.37 1.369a.685.685 0 0 1-.484 1.169zm0 0" class="cls-3" data-name="Path 2734" transform="translate(5.405 11.03)"/>
            <path id="Path_2735" d="M13.341 26.43a.685.685 0 0 1-.216-1.335l2.055-.685a.685.685 0 1 1 .433 1.3l-2.055.685a.7.7 0 0 1-.217.035zm0 0" class="cls-3" data-name="Path 2735" transform="translate(5.838 11.246)"/>
            <path id="Path_2736" d="M16.154 26.646a.685.685 0 0 1-.484-1.169l1.37-1.369a.685.685 0 1 1 .969.969l-1.37 1.369a.684.684 0 0 1-.485.2zm0 0" class="cls-3" data-name="Path 2736" transform="translate(7.135 11.03)"/>
            <path id="Path_2737" d="M16.8 26.43a.691.691 0 0 1-.216-.035l-2.055-.685a.685.685 0 0 1 .433-1.3l2.055.685a.685.685 0 0 1-.217 1.335zm0 0" class="cls-3" data-name="Path 2737" transform="translate(6.487 11.246)"/>
            <path id="Path_2738" d="M20.841 30.865a.685.685 0 1 1 0-1.37.685.685 0 0 0 .685-.685.685.685 0 0 1 1.37 0 2.057 2.057 0 0 1-2.055 2.055zm0 0" class="cls-3" data-name="Path 2738" transform="translate(9.298 12.976)"/>
            <path id="Path_2739" d="M9.087 30.865a2.057 2.057 0 0 1-2.055-2.055.685.685 0 0 1 1.37 0 .685.685 0 0 0 .685.685.685.685 0 1 1 0 1.37zm0 0" class="cls-3" data-name="Path 2739" transform="translate(3.243 12.976)"/>
            <path id="Path_2740" d="M14.763 28.089a.685.685 0 0 1-.008-1.37h.008a.685.685 0 0 1 0 1.37zm0 0" class="cls-3" data-name="Path 2740" transform="translate(6.492 12.327)"/>
            <path id="Path_2741" d="M3.514 17.307a.685.685 0 0 1-.008-1.37h.008a.685.685 0 1 1 0 1.37zm0 0" class="cls-3" data-name="Path 2741" transform="translate(1.302 7.353)"/>
            <path id="Path_2742" d="M4.8 21.309a4.8 4.8 0 1 1 4.795-4.8 4.8 4.8 0 0 1-4.795 4.8zm0-8.22a3.425 3.425 0 1 0 3.424 3.425A3.431 3.431 0 0 0 4.8 13.089zm0 0" class="cls-3" data-name="Path 2742" transform="translate(-.001 5.407)"/>
            <path id="Path_2743" d="M3.5 16.551a.684.684 0 0 1-.685-.685V13.81a.685.685 0 0 1 1.37 0v2.056a.684.684 0 0 1-.685.685zm0 0" class="cls-3" data-name="Path 2743" transform="translate(1.297 6.055)"/>
            <path id="Path_2744" d="M8.365 15.9H6.311a.685.685 0 0 1 0-1.37h2.054a.685.685 0 0 1 0 1.37zm0 0" class="cls-3" data-name="Path 2744" transform="translate(2.594 6.705)"/>
            <path id="Path_2745" d="M26.013 17.308a.685.685 0 0 1-.013-1.37h.008a.685.685 0 0 1 0 1.37zm0 0" class="cls-3" data-name="Path 2745" transform="translate(11.682 7.353)"/>
            <path id="Path_2746" d="M27.295 21.31a4.8 4.8 0 1 1 4.794-4.8 4.8 4.8 0 0 1-4.794 4.8zm0-8.22a3.425 3.425 0 1 0 3.425 3.425 3.428 3.428 0 0 0-3.426-3.426zm0 0" class="cls-3" data-name="Path 2746" transform="translate(10.379 5.407)"/>
            <path id="Path_2747" d="M26 16.551a.685.685 0 0 1-.685-.685v-2.055a.685.685 0 1 1 1.37 0v2.056a.685.685 0 0 1-.685.684zm0 0" class="cls-3" data-name="Path 2747" transform="translate(11.677 6.056)"/>
            <path id="Path_2748" d="M23.833 15.9h-2.055a.685.685 0 1 1 0-1.37h2.055a.685.685 0 1 1 0 1.37zm0 0" class="cls-3" data-name="Path 2748" transform="translate(9.73 6.705)"/>
            <path id="Path_2749" d="M23.05 9.022a.685.685 0 0 1-.007-1.37h.007a.685.685 0 1 1 0 1.37zm0 0" class="cls-3" data-name="Path 2749" transform="translate(10.315 3.53)"/>
            <path id="Path_2750" d="M24.332 13.024a4.8 4.8 0 1 1 4.793-4.8 4.8 4.8 0 0 1-4.793 4.8zm0-8.221a3.426 3.426 0 1 0 3.424 3.425A3.428 3.428 0 0 0 24.331 4.8zm0 0" class="cls-3" data-name="Path 2750" transform="translate(9.013 1.584)"/>
            <path id="Path_2751" d="M23.035 8.265a.685.685 0 0 1-.685-.684V5.525a.685.685 0 0 1 .684-.686.685.685 0 0 1 .685.684V7.58a.686.686 0 0 1-.684.685zm0 0" class="cls-3" data-name="Path 2751" transform="translate(10.31 2.233)"/>
            <path id="Path_2752" d="M20.051 11.058a.685.685 0 0 1-.484-1.169l1.453-1.453a.685.685 0 1 1 .969.969l-1.454 1.452a.684.684 0 0 1-.484.201zm0 0" class="cls-3" data-name="Path 2752" transform="translate(8.933 3.8)"/>
            <path id="Path_2753" d="M14.764 5.588a.685.685 0 0 1-.008-1.37h.008a.685.685 0 1 1 0 1.37zm0 0" class="cls-3" data-name="Path 2753" transform="translate(6.492 1.946)"/>
            <path id="Path_2754" d="M16.046 9.591a4.8 4.8 0 1 1 4.794-4.8 4.8 4.8 0 0 1-4.794 4.8zm0-8.221a3.426 3.426 0 1 0 3.424 3.425 3.429 3.429 0 0 0-3.425-3.425zm0 0" class="cls-3" data-name="Path 2754" transform="translate(5.189)"/>
            <path id="Path_2755" d="M14.748 4.832a.684.684 0 0 1-.685-.685V2.091a.685.685 0 1 1 1.37 0v2.056a.684.684 0 0 1-.685.685zm0 0" class="cls-3" data-name="Path 2755" transform="translate(6.487 .649)"/>
            <path id="Path_2756" d="M14.748 9.05a.684.684 0 0 1-.685-.685V6.311a.685.685 0 1 1 1.37 0v2.054a.684.684 0 0 1-.685.685zm0 0" class="cls-3" data-name="Path 2756" transform="translate(6.487 2.595)"/>
            <path id="Path_2757" d="M6.478 9.02a.685.685 0 0 1-.007-1.37h.007a.685.685 0 1 1 0 1.37zm0 0" class="cls-3" data-name="Path 2757" transform="translate(2.67 3.529)"/>
            <path id="Path_2758" d="M7.76 13.023a4.8 4.8 0 1 1 4.793-4.8 4.762 4.762 0 0 1-4.793 4.8zm0-8.221a3.426 3.426 0 1 0 3.424 3.425A3.428 3.428 0 0 0 7.759 4.8zm0 0" class="cls-3" data-name="Path 2758" transform="translate(1.367 1.583)"/>
            <path id="Path_2759" d="M6.462 8.264a.684.684 0 0 1-.685-.685V5.523a.685.685 0 0 1 1.37 0v2.056a.685.685 0 0 1-.685.685zm0 0" class="cls-3" data-name="Path 2759" transform="translate(2.664 2.232)"/>
            <path id="Path_2760" d="M9.9 11.057a.684.684 0 0 1-.484-.2L7.967 9.4a.685.685 0 0 1 .969-.969l1.453 1.453a.685.685 0 0 1-.489 1.173zm0 0" class="cls-3" data-name="Path 2760" transform="translate(3.582 3.799)"/>
        </g>
    </g>
</svg>
