<svg xmlns="http://www.w3.org/2000/svg" width="54.264" height="54.264" viewBox="0 0 54.264 54.264">
    <defs>
        <style>
            .cls-1{fill:#6d6d80}.cls-2{clip-path:url(#clip-path)}.cls-3{fill:#e9041e}
        </style>
        <clipPath id="clip-path">
            <path id="Rectangle_1617" d="M0 0h54.263v54.263H0z" class="cls-1" data-name="Rectangle 1617" transform="translate(542 109)"/>
        </clipPath>
    </defs>
    <g id="Mask_Group_677" class="cls-2" data-name="Mask Group 677" transform="translate(-542 -109)">
        <g id="subscription" transform="translate(542 109)">
            <path id="Path_2406" d="M38.61 0h-19.9A2.713 2.713 0 0 0 16 2.713v32.558a2.713 2.713 0 0 0 2.713 2.713h5.427v-1.808h-5.427a.9.9 0 0 1-.9-.9V2.713a.9.9 0 0 1 .9-.9h19.9a.9.9 0 0 1 .9.9v32.558a.9.9 0 0 1-.9.9h-5.43v1.809h5.427a2.713 2.713 0 0 0 2.713-2.713V2.713A2.713 2.713 0 0 0 38.61 0zm0 0" class="cls-3" data-name="Path 2406" transform="translate(-1.53)"/>
            <path id="Path_2407" d="M2.713 34.749h9.948V32.94H2.713a.9.9 0 0 1-.9-.9V6.713a.9.9 0 0 1 .9-.9h9.948V4H2.713A2.713 2.713 0 0 0 0 6.713v25.323a2.713 2.713 0 0 0 2.713 2.713zm0 0" class="cls-3" data-name="Path 2407" transform="translate(0 -.382)"/>
            <path id="Path_2408" d="M24 5h1.809v1.809H24zm0 0" class="cls-3" data-name="Path 2408" transform="translate(-2.295 -.478)"/>
            <path id="Path_2409" d="M28 5h7.235v1.809H28zm0 0" class="cls-3" data-name="Path 2409" transform="translate(-2.677 -.478)"/>
            <path id="Path_2410" d="M21 10h1.809v3.618H21zm0 0" class="cls-3" data-name="Path 2410" transform="translate(-2.008 -.956)"/>
            <path id="Path_2411" d="M25 10h1.809v3.618H25zm0 0" class="cls-3" data-name="Path 2411" transform="translate(-2.39 -.956)"/>
            <path id="Path_2412" d="M29 10h1.809v3.618H29zm0 0" class="cls-3" data-name="Path 2412" transform="translate(-2.773 -.956)"/>
            <path id="Path_2413" d="M33 10h1.809v3.618H33zm0 0" class="cls-3" data-name="Path 2413" transform="translate(-3.155 -.956)"/>
            <path id="Path_2414" d="M37 10h1.809v3.618H37zm0 0" class="cls-3" data-name="Path 2414" transform="translate(-3.538 -.956)"/>
            <path id="Path_2415" d="M29 17h6.331v1.809H29zm0 0" class="cls-3" data-name="Path 2415" transform="translate(-2.773 -1.625)"/>
            <path id="Path_2416" d="M26.713 34.426h5.427a2.713 2.713 0 0 0 0-5.426h-5.427a2.713 2.713 0 0 0 0 5.426zm0-3.618h5.427a.9.9 0 1 1 0 1.809h-5.427a.9.9 0 0 1 0-1.809zm0 0" class="cls-3" data-name="Path 2416" transform="translate(-2.295 -2.773)"/>
            <path id="Path_2417" d="M11 8h2.713v1.809H11zm0 0" class="cls-3" data-name="Path 2417" transform="translate(-1.052 -.765)"/>
            <path id="Path_2418" d="M4 13h1.809v2.713H4zm0 0" class="cls-3" data-name="Path 2418" transform="translate(-.382 -1.243)"/>
            <path id="Path_2419" d="M8 13h1.809v2.713H8zm0 0" class="cls-3" data-name="Path 2419" transform="translate(-.765 -1.243)"/>
            <path id="Path_2420" d="M12 13h1.809v2.713H12zm0 0" class="cls-3" data-name="Path 2420" transform="translate(-1.147 -1.243)"/>
            <path id="Path_2421" d="M7 8h1.809v1.809H7zm0 0" class="cls-3" data-name="Path 2421" transform="translate(-.669 -.765)"/>
            <path id="Path_2422" d="M7.713 32.426h5.427v-1.808H7.713a.9.9 0 0 1 0-1.809h5.427V27H7.713a2.713 2.713 0 1 0 0 5.426zm0 0" class="cls-3" data-name="Path 2422" transform="translate(-.478 -2.581)"/>
            <path id="Path_2423" d="M55.948 4H46v1.809h9.948a.9.9 0 0 1 .9.9v25.327a.9.9 0 0 1-.9.9H46v1.809h9.948a2.713 2.713 0 0 0 2.713-2.713V6.713A2.713 2.713 0 0 0 55.948 4zm0 0" class="cls-3" data-name="Path 2423" transform="translate(-4.398 -.382)"/>
            <path id="Path_2424" d="M46 8h6.331v1.809H46zm0 0" class="cls-3" data-name="Path 2424" transform="translate(-4.398 -.765)"/>
            <path id="Path_2425" d="M54 13h1.809v2.713H54zm0 0" class="cls-3" data-name="Path 2425" transform="translate(-5.163 -1.243)"/>
            <path id="Path_2426" d="M50 13h1.809v2.713H50zm0 0" class="cls-3" data-name="Path 2426" transform="translate(-4.78 -1.243)"/>
            <path id="Path_2427" d="M46 13h1.809v2.713H46zm0 0" class="cls-3" data-name="Path 2427" transform="translate(-4.398 -1.243)"/>
            <path id="Path_2428" d="M46 27v1.809h5.426a.9.9 0 0 1 0 1.809H46v1.809h5.426a2.713 2.713 0 0 0 0-5.426zm0 0" class="cls-3" data-name="Path 2428" transform="translate(-4.398 -2.581)"/>
            <path id="Path_2429" d="M42.61 56.9v-9.855a2.789 2.789 0 0 0-2.261-2.774 2.727 2.727 0 0 0-2.206.609l-.053.046a2.707 2.707 0 0 0-3.618 0 2.818 2.818 0 0 0-2.713-.538V39.81a2.789 2.789 0 0 0-2.259-2.774 2.713 2.713 0 0 0-3.167 2.677v11.064l-2.4-1.44a2.483 2.483 0 0 0-2.4-.091l-.144.072a2.5 2.5 0 0 0-.334 4.272l5.662 4.043a.9.9 0 0 0 .525.166h14.47a.9.9 0 0 0 .898-.899zm-1.809-.9H27.524L22.1 52.117a.694.694 0 0 1 .091-1.184l.144-.07a.687.687 0 0 1 .665.025l3.77 2.261a.9.9 0 0 0 1.372-.774V39.713a.9.9 0 0 1 1.062-.891.979.979 0 0 1 .746.987v7.138a.9.9 0 0 0 1.809 0 .9.9 0 1 1 1.809 0 .9.9 0 0 0 1.809 0 .9.9 0 1 1 1.809 0 .9.9 0 0 0 1.809 0 .9.9 0 0 1 1.062-.891.979.979 0 0 1 .746.987zm0 0" class="cls-3" data-name="Path 2429" transform="translate(-1.912 -3.537)"/>
            <path id="Path_2430" d="M24 17h2.713v1.809H24zm0 0" class="cls-3" data-name="Path 2430" transform="translate(-2.295 -1.625)"/>
            <path id="Path_2431" d="M24 21h10.853v1.809H24zm0 0" class="cls-3" data-name="Path 2431" transform="translate(-2.295 -2.008)"/>
            <path id="Path_2432" d="M26 25h7.235v1.809H26zm0 0" class="cls-3" data-name="Path 2432" transform="translate(-2.486 -2.39)"/>
            <path id="Path_2433" d="M8 19h5.426v1.809H8zm0 0" class="cls-3" data-name="Path 2433" transform="translate(-.765 -1.817)"/>
            <path id="Path_2434" d="M10 23h3.618v1.809H10zm0 0" class="cls-3" data-name="Path 2434" transform="translate(-.956 -2.199)"/>
            <path id="Path_2435" d="M46 19h4.522v1.809H46zm0 0" class="cls-3" data-name="Path 2435" transform="translate(-4.398 -1.817)"/>
            <path id="Path_2436" d="M46 23h2.713v1.809H46zm0 0" class="cls-3" data-name="Path 2436" transform="translate(-4.398 -2.199)"/>
        </g>
    </g>
</svg>
