<svg xmlns="http://www.w3.org/2000/svg" xmlns:xlink="http://www.w3.org/1999/xlink" width="36" height="36" viewBox="0 0 36 36"><defs><style>.a{fill:#6d6d80;stroke:#707070;}.b{clip-path:url(#a);}.c{fill:#010035;}</style><clipPath id="a"><rect class="a" width="36" height="36" transform="translate(395 1701)"/></clipPath></defs><g class="b" transform="translate(-395 -1701)"><g transform="translate(394.93 1700.93)"><path class="c" d="M35.126,27.842l-7.287-4.859a2.127,2.127,0,0,0-2.848.463l-2.122,2.729a.907.907,0,0,1-1.163.245l-.4-.223A24.4,24.4,0,0,1,14.943,21.2a24.5,24.5,0,0,1-4.995-6.359l-.221-.4a.908.908,0,0,1,.24-1.167l2.727-2.122A2.128,2.128,0,0,0,13.157,8.3L8.3,1.016A2.116,2.116,0,0,0,5.446.374L2.4,2.2A4.3,4.3,0,0,0,.439,4.748c-1.1,4-.272,10.9,9.892,21.062,8.085,8.084,14.1,10.258,18.241,10.258a10.629,10.629,0,0,0,2.82-.368,4.294,4.294,0,0,0,2.544-1.96L35.767,30.7A2.116,2.116,0,0,0,35.126,27.842Zm-.392,2.238-1.828,3.047a3.1,3.1,0,0,1-1.83,1.418c-3.691,1.013-10.138.174-19.9-9.584S.583,8.757,1.6,5.066a3.105,3.105,0,0,1,1.42-1.832L6.063,1.405A.918.918,0,0,1,7.3,1.684L9.94,5.647,12.156,8.97a.923.923,0,0,1-.2,1.236L9.228,12.327a2.1,2.1,0,0,0-.556,2.695l.217.394a25.45,25.45,0,0,0,5.2,6.635,25.476,25.476,0,0,0,6.634,5.2l.394.217a2.1,2.1,0,0,0,2.695-.556l2.122-2.728a.924.924,0,0,1,1.236-.2l7.286,4.859A.917.917,0,0,1,34.733,30.08Z"/><path class="c" d="M20.469,6.073a10.21,10.21,0,0,1,10.2,10.2.6.6,0,0,0,1.2,0,11.411,11.411,0,0,0-11.4-11.4.6.6,0,1,0,0,1.2Z"/><path class="c" d="M20.469,9.673a6.607,6.607,0,0,1,6.6,6.6.6.6,0,1,0,1.2,0,7.808,7.808,0,0,0-7.8-7.8.6.6,0,0,0,0,1.2Z"/><path class="c" d="M20.469,13.272a3,3,0,0,1,3,3,.6.6,0,1,0,1.2,0,4.2,4.2,0,0,0-4.2-4.2.6.6,0,1,0,0,1.2Z"/></g></g></svg>