<svg xmlns="http://www.w3.org/2000/svg" xmlns:xlink="http://www.w3.org/1999/xlink" width="36" height="36" viewBox="0 0 36 36"><defs><style>.a{fill:#6d6d80;stroke:#707070;}.b{clip-path:url(#a);}.c{fill:#010035;}</style><clipPath id="a"><rect class="a" width="36" height="36" transform="translate(1281 1701)"/></clipPath></defs><g class="b" transform="translate(-1281 -1701)"><g transform="translate(1281.563 1701)"><path class="c" d="M-5236.814-2973h-14.639a1.69,1.69,0,0,1-1.673-1.673v-1.541a.549.549,0,0,1,.006-.081.548.548,0,0,1-.006-.08,3.943,3.943,0,0,1,3.938-3.938h1.688v-.906a6.752,6.752,0,0,1-3.375-5.844v-5.063a5.631,5.631,0,0,1,5.625-5.624h4.5a.562.562,0,0,1,.563.563v1.734a3.38,3.38,0,0,1,2.811,3.328v2.785a.35.35,0,0,1,0,.055v2.224h0a6.75,6.75,0,0,1-3.374,5.841v.907h1.686a3.943,3.943,0,0,1,3.938,3.938.548.548,0,0,1-.006.08.549.549,0,0,1,.006.081v1.527s0,.01,0,.015A1.688,1.688,0,0,1-5236.8-2973Zm0-1.125a.563.563,0,0,0,.563-.562v-1.527a.626.626,0,0,1,.005-.081.625.625,0,0,1-.005-.08,2.815,2.815,0,0,0-2.813-2.813h-2.016l-.96.958a.5.5,0,0,1-.041.037l-.006.005-.012.009-.011.008-.006,0a.564.564,0,0,1-.17.08h0l-.056.012h-.009l-.013,0-.013,0h-.118l-.019,0h-.007l-.02,0h-.005l-.024-.005h0l-.02-.006-.01,0-.01,0-1.509-.5-1.509.5-.012,0-.008,0-.015,0-.022.005-.011,0-.014,0-.011,0-.013,0h-.132l-.013,0-.012,0-.011,0-.051-.011h-.005l-.017-.005h0l-.018-.006h0l-.036-.015,0,0-.013-.006-.011-.005-.01,0-.018-.01h0a.567.567,0,0,1-.127-.1l-.944-.943h-2.018a2.816,2.816,0,0,0-2.812,2.813.548.548,0,0,1-.006.08.549.549,0,0,1,.006.081v1.527a.563.563,0,0,0,.563.563Zm-8.848-5.144,1.355-.452a.559.559,0,0,1,.138-.029.56.56,0,0,1,.245.035l1.334.445.715-.714v-.715a6.724,6.724,0,0,1-2.25.385,6.726,6.726,0,0,1-2.25-.385v.717Zm1.537-2.169a5.629,5.629,0,0,0,5.624-5.624v-2.018l-1.238-1.239a11.107,11.107,0,0,1-4.385,1.006,11.093,11.093,0,0,1-4.387-1.008l-1.239,1.24v2.018A5.631,5.631,0,0,0-5244.125-2981.437Zm-4.234-10.057a10.173,10.173,0,0,0,4.234,1.058,10.091,10.091,0,0,0,4.232-1.058.559.559,0,0,1,.4-.052h.006l.016.005a.022.022,0,0,1,.009,0l.02.005a.035.035,0,0,0,.013.005l.007,0,.046.02,0,0c.014.008.03.016.044.025h0c.016.011.03.02.045.032a0,0,0,0,0,0,0c.017.013.034.029.051.045l.726.726v-1.454a2.252,2.252,0,0,0-2.249-2.25.561.561,0,0,1-.562-.562v-1.686h-3.938a4.5,4.5,0,0,0-4.5,4.5v1.455l.728-.728,0,0a.562.562,0,0,1,.4-.162A.561.561,0,0,1-5248.359-2991.494Zm3.686,15.12a.56.56,0,0,1,.559-.562h.007a.563.563,0,0,1,.563.563.562.562,0,0,1-.562.563A.564.564,0,0,1-5244.674-2976.375Zm10.151-14.061h-1.166a.563.563,0,0,1-.562-.563.563.563,0,0,1,.563-.562h1.165a3.945,3.945,0,0,1,3.9-3.376,3.942,3.942,0,0,1,3.937,3.938,3.942,3.942,0,0,1-3.937,3.938A3.943,3.943,0,0,1-5234.523-2990.435Zm1.084-.565a2.817,2.817,0,0,0,2.813,2.814,2.817,2.817,0,0,0,2.813-2.813,2.817,2.817,0,0,0-2.812-2.812A2.815,2.815,0,0,0-5233.439-2991Zm-28.124,0a3.942,3.942,0,0,1,3.938-3.937,3.911,3.911,0,0,1,2.784,1.153,3.907,3.907,0,0,1,1.113,2.222h1.165a.562.562,0,0,1,.563.563.561.561,0,0,1-.562.563h-1.166a3.941,3.941,0,0,1-3.9,3.374A3.941,3.941,0,0,1-5261.562-2991Zm1.125,0a2.817,2.817,0,0,0,2.813,2.813,2.816,2.816,0,0,0,2.812-2.814,2.813,2.813,0,0,0-2.81-2.811A2.817,2.817,0,0,0-5260.437-2991Zm29.263,1.688a.559.559,0,0,1,.559-.562h.006a.562.562,0,0,1,.563.563.563.563,0,0,1-.562.563A.564.564,0,0,1-5231.174-2989.312Zm-27,0a.559.559,0,0,1,.559-.562h.006a.562.562,0,0,1,.563.563.563.563,0,0,1-.562.563A.564.564,0,0,1-5258.173-2989.313Zm26.984-1.686v-1.687a.562.562,0,0,1,.563-.562.562.562,0,0,1,.563.563V-2991a.562.562,0,0,1-.562.563A.562.562,0,0,1-5231.189-2991Zm-27,0v-1.689a.562.562,0,0,1,.563-.562.563.563,0,0,1,.563.563V-2991a.563.563,0,0,1-.562.563A.562.562,0,0,1-5258.187-2991Zm20.028-5.966a.56.56,0,0,1,0-.795l.827-.825a3.923,3.923,0,0,1-.786-2.358,3.942,3.942,0,0,1,3.936-3.937,3.943,3.943,0,0,1,3.938,3.937,3.945,3.945,0,0,1-3.937,3.939,3.91,3.91,0,0,1-2.357-.786l-.827.825a.561.561,0,0,1-.4.165A.56.56,0,0,1-5238.16-2996.965Zm1.166-3.979a2.816,2.816,0,0,0,2.811,2.814,2.818,2.818,0,0,0,2.813-2.814,2.815,2.815,0,0,0-2.813-2.811A2.814,2.814,0,0,0-5236.994-3000.944Zm-13.893,3.977-.825-.825a3.918,3.918,0,0,1-2.355.786,3.914,3.914,0,0,1-2.785-1.154,3.913,3.913,0,0,1-1.153-2.785,3.941,3.941,0,0,1,3.937-3.936,3.942,3.942,0,0,1,3.938,3.936,3.922,3.922,0,0,1-.786,2.358l.827.825a.563.563,0,0,1,0,.795.566.566,0,0,1-.4.165A.564.564,0,0,1-5250.887-2996.966Zm-5.994-3.979a2.8,2.8,0,0,0,.823,1.99,2.8,2.8,0,0,0,1.989.824,2.817,2.817,0,0,0,2.813-2.814,2.815,2.815,0,0,0-2.812-2.811A2.815,2.815,0,0,0-5256.88-3000.945Zm22.7,3.94Zm-.549-2.25a.56.56,0,0,1,.56-.562h.006a.562.562,0,0,1,.563.563.563.563,0,0,1-.562.563A.566.566,0,0,1-5234.73-2999.255Zm-19.885,0a.559.559,0,0,1,.56-.562h.005a.561.561,0,0,1,.563.563.562.562,0,0,1-.562.563A.565.565,0,0,1-5254.616-2999.257Zm9.929-.742v-1.165a3.945,3.945,0,0,1-3.376-3.9,3.943,3.943,0,0,1,3.938-3.938,3.943,3.943,0,0,1,3.938,3.938,3.946,3.946,0,0,1-3.374,3.9V-3000a.562.562,0,0,1-.562.563A.561.561,0,0,1-5244.687-3000Zm-2.251-5.063a2.816,2.816,0,0,0,2.813,2.813,2.818,2.818,0,0,0,2.813-2.813,2.816,2.816,0,0,0-2.812-2.812A2.815,2.815,0,0,0-5246.938-3005.062Zm12.195,4.121v-1.689a.562.562,0,0,1,.563-.562.562.562,0,0,1,.563.561v1.689a.563.563,0,0,1-.562.563A.561.561,0,0,1-5234.744-3000.941Zm-19.888,0v-1.688a.561.561,0,0,1,.563-.562.561.561,0,0,1,.563.563v1.688a.562.562,0,0,1-.562.563A.562.562,0,0,1-5254.631-3000.944Zm9.958-2.431a.56.56,0,0,1,.56-.562h.005a.561.561,0,0,1,.563.563.561.561,0,0,1-.562.561A.564.564,0,0,1-5244.674-3003.375Zm-.014-1.686v-1.689a.561.561,0,0,1,.563-.562.562.562,0,0,1,.563.563v1.689a.562.562,0,0,1-.562.561A.561.561,0,0,1-5244.688-3005.061Z" transform="translate(5261.563 3009)"/></g></g></svg>