<svg xmlns="http://www.w3.org/2000/svg" xmlns:xlink="http://www.w3.org/1999/xlink" width="36" height="36" viewBox="0 0 36 36"><defs><style>.a{fill:#6d6d80;stroke:#707070;}.b{clip-path:url(#a);}.c{fill:#010035;}</style><clipPath id="a"><rect class="a" width="36" height="36" transform="translate(812 1701)"/></clipPath></defs><g class="b" transform="translate(-812 -1701)"><g transform="translate(812 1701)"><path class="c" d="M6,15.279h7.8a.6.6,0,1,0,0-1.2H6a.6.6,0,1,0,0,1.2Z"/><path class="c" d="M21.6,17.679H6a.6.6,0,0,0,0,1.2H21.6a.6.6,0,1,0,0-1.2Z"/><path class="c" d="M21.6,21.279H6a.6.6,0,1,0,0,1.2H21.6a.6.6,0,1,0,0-1.2Z"/><path class="c" d="M32.443,1.521,11.958,1.479A3.562,3.562,0,0,0,8.4,5.037V8.111l-4.842.01A3.562,3.562,0,0,0,0,11.68V24.364a3.561,3.561,0,0,0,3.558,3.557H7.2v6a.6.6,0,0,0,1.044.4l5.822-6.405,9.976-.041A3.562,3.562,0,0,0,27.6,24.322v-.068l3.156,3.472a.6.6,0,0,0,1.044-.4v-6h.642A3.562,3.562,0,0,0,36,17.765V5.079A3.562,3.562,0,0,0,32.443,1.521ZM26.4,24.322a2.361,2.361,0,0,1-2.36,2.357L13.8,26.721a.6.6,0,0,0-.442.2L8.4,32.369V27.321a.6.6,0,0,0-.6-.6H3.558A2.361,2.361,0,0,1,1.2,24.364V11.679A2.361,2.361,0,0,1,3.559,9.321L9,9.31H9l15.041-.031A2.361,2.361,0,0,1,26.4,11.636V24.322Zm8.4-6.558a2.36,2.36,0,0,1-2.358,2.357H31.2a.6.6,0,0,0-.6.6v5.048l-3-3.3V11.637a3.562,3.562,0,0,0-3.559-3.558L9.6,8.108V5.036a2.36,2.36,0,0,1,2.357-2.358l20.485.042h0A2.361,2.361,0,0,1,34.8,5.078V17.764Z"/></g></g></svg>