<svg xmlns="http://www.w3.org/2000/svg" width="47.803" height="47.803" viewBox="0 0 47.803 47.803">
    <defs>
        <style>
            .cls-1{fill:#fff}.cls-2{clip-path:url(#clip-path)}
        </style>
        <clipPath id="clip-path">
            <path id="Rectangle_309" d="M0 0h27.799v27.799H0z" class="cls-1" data-name="Rectangle 309"/>
        </clipPath>
    </defs>
    <g id="Taux_de_change_icon" data-name="Taux de change_icon">
        <g id="Group_24" data-name="Group 24">
            <rect id="Rectangle_305" width="47.803" height="47.803" data-name="Rectangle 305" rx="5"/>
        </g>
        <g id="Mask_Group_601" class="cls-2" data-name="Mask Group 601" transform="translate(10.523 10.522)">
            <g id="currency-rates" transform="translate(0 1.658)">
                <path id="Path_9" d="M27.08 8.549a.7.7 0 0 0-.347-.4l-.622-.315a.7.7 0 0 0-.936.307l-.784 1.55a12.1 12.1 0 0 0-23.1-.221.7.7 0 0 0 .45.877l.663.214a.7.7 0 0 0 .877-.45A10.007 10.007 0 0 1 22.5 10.7l-2.019-1.024a.7.7 0 0 0-.936.307l-.315.622a.7.7 0 0 0 .307.936l4.36 2.206a.7.7 0 0 0 .936-.307l2.206-4.36a.7.7 0 0 0 .041-.531z" class="cls-1" data-name="Path 9" transform="translate(.684 -1.074)"/>
                <path id="Path_10" d="M25.375 12.152l-.663-.214a.7.7 0 0 0-.877.45A10.007 10.007 0 0 1 4.616 11.8l2.018 1.021a.7.7 0 0 0 .936-.307l.315-.622a.7.7 0 0 0-.307-.936l-4.36-2.21a.7.7 0 0 0-.936.307l-2.207 4.36a.7.7 0 0 0 .307.936l.618.315a.7.7 0 0 0 .936-.307l.784-1.55a12.1 12.1 0 0 0 23.1.221.7.7 0 0 0-.449-.877z" class="cls-1" data-name="Path 10" transform="translate(0 3.062)"/>
                <path id="Path_11" d="M10.322 13.849a2.538 2.538 0 0 1-1.749-.7l-.311-.329a.209.209 0 0 0-.3-.008L6.8 13.914a.209.209 0 0 0-.008.3l.311.329a4.445 4.445 0 0 0 2.162 1.2V16.9a.209.209 0 0 0 .209.209h1.6a.209.209 0 0 0 .209-.209v-1.118a2.657 2.657 0 0 0 2.439-2.57c.017-2.063-1.78-2.607-2.969-2.967C9.33 9.812 9.114 9.6 9.114 9.076c0-.553.912-.7 1.451-.7a3.108 3.108 0 0 1 1.5.4l.38.246a.209.209 0 0 0 .289-.062l.87-1.346a.209.209 0 0 0-.062-.289l-.38-.246a4.861 4.861 0 0 0-1.877-.669V5.329a.209.209 0 0 0-.209-.209h-1.6a.209.209 0 0 0-.209.209v1.192a2.677 2.677 0 0 0-2.174 2.555c0 2.17 1.928 2.754 3.079 3.1 1.347.408 1.538.585 1.534 1.024.001.513-.87.649-1.384.649z" class="cls-1" data-name="Path 11" transform="translate(3.667 1.129)"/>
            </g>
        </g>
    </g>
</svg>
